<svg width="28" height="12" viewBox="0 0 28 12" fill="none" xmlns="http://www.w3.org/2000/svg">
<path d="M5.92002 2.08171C6.23102 1.69273 6.44205 1.17044 6.38639 0.636719C5.93115 0.659356 5.3756 0.937062 5.05397 1.32635C4.76518 1.65972 4.50958 2.20388 4.57621 2.71522C5.08725 2.75955 5.59782 2.45978 5.92002 2.08171Z" fill="#000008"/>
<path d="M6.38061 2.81507C5.63845 2.77086 5.00744 3.23628 4.65303 3.23628C4.29842 3.23628 3.75569 2.83734 3.16869 2.8481C2.40467 2.85932 1.69574 3.2913 1.30804 3.97836C0.510587 5.35281 1.09759 7.39161 1.87307 8.51102C2.24966 9.06483 2.70351 9.67462 3.30153 9.65271C3.86656 9.63054 4.08803 9.28685 4.77485 9.28685C5.46117 9.28685 5.66066 9.65271 6.25878 9.64163C6.87905 9.63054 7.26682 9.08754 7.64341 8.5332C8.07543 7.90188 8.25228 7.29229 8.2634 7.25883C8.25228 7.24775 7.06736 6.79318 7.05637 5.43015C7.04518 4.28887 7.98667 3.74601 8.03098 3.71234C7.49931 2.92601 6.6686 2.83734 6.38061 2.81507Z" fill="#000008"/>
<path d="M12.8427 1.27052C14.4557 1.27052 15.579 2.38242 15.579 4.00125C15.579 5.62587 14.4326 6.74354 12.8022 6.74354H11.0163V9.58373H9.7259V1.27052L12.8427 1.27052ZM11.0163 5.66043H12.4969C13.6203 5.66043 14.2597 5.05559 14.2597 4.00703C14.2597 2.95859 13.6203 2.35941 12.5026 2.35941H11.0163V5.66043Z" fill="#000008"/>
<path d="M15.9161 7.8612C15.9161 6.80109 16.7284 6.15013 18.1688 6.06945L19.8278 5.97156V5.50495C19.8278 4.83088 19.3727 4.42762 18.6124 4.42762C17.8921 4.42762 17.4427 4.77321 17.3333 5.31482H16.1581C16.2272 4.22015 17.1604 3.41362 18.6584 3.41362C20.1274 3.41362 21.0664 4.19137 21.0664 5.40694V9.58371H19.8738V8.58705H19.8451C19.4938 9.26112 18.7275 9.68739 17.9325 9.68739C16.7457 9.68739 15.9161 8.94998 15.9161 7.8612ZM19.8278 7.31392V6.83576L18.3357 6.92788C17.5925 6.97977 17.172 7.30814 17.172 7.82664C17.172 8.35658 17.6098 8.70228 18.2781 8.70228C19.148 8.70228 19.8278 8.10311 19.8278 7.31392Z" fill="#000008"/>
<path d="M22.1923 11.8133V10.8051C22.2843 10.8281 22.4916 10.8281 22.5954 10.8281C23.1715 10.8281 23.4826 10.5861 23.6727 9.96397C23.6727 9.95242 23.7822 9.59527 23.7822 9.58949L21.5931 3.52307H22.941L24.4736 8.45459H24.4965L26.0291 3.52307H27.3426L25.0726 9.90052C24.5543 11.3697 23.9551 11.8421 22.6992 11.8421C22.5954 11.8421 22.2843 11.8305 22.1923 11.8133Z" fill="#000008"/>
</svg>
