<svg width="26" height="16" viewBox="0 0 26 16" fill="none" xmlns="http://www.w3.org/2000/svg">
<path d="M16.27 1.84888H9.40676V14.1824H16.27V1.84888Z" fill="#FF5F00"/>
<path d="M9.84257 8.01562C9.84149 6.82782 10.1107 5.65533 10.6297 4.58693C11.1487 3.51853 11.904 2.58222 12.8384 1.84887C11.6813 0.939353 10.2916 0.373738 8.82827 0.216673C7.3649 0.0596076 5.88686 0.317425 4.56309 0.960668C3.23931 1.60391 2.12322 2.60663 1.34238 3.85419C0.56154 5.10176 0.147461 6.54385 0.147461 8.01562C0.147461 9.4874 0.56154 10.9295 1.34238 12.1771C2.12322 13.4246 3.23931 14.4273 4.56309 15.0706C5.88686 15.7138 7.3649 15.9716 8.82827 15.8146C10.2916 15.6575 11.6813 15.0919 12.8384 14.1824C11.904 13.449 11.1487 12.5127 10.6297 11.4443C10.1107 10.3759 9.8415 9.20343 9.84257 8.01562Z" fill="#EB001B"/>
<path d="M25.529 8.01562C25.529 9.48738 25.115 10.9295 24.3342 12.177C23.5534 13.4246 22.4374 14.4273 21.1136 15.0706C19.7899 15.7138 18.3118 15.9716 16.8485 15.8146C15.3851 15.6575 13.9955 15.0919 12.8384 14.1824C13.772 13.4483 14.5267 12.5118 15.0457 11.4436C15.5646 10.3754 15.8343 9.20324 15.8343 8.01562C15.8343 6.82801 15.5646 5.65589 15.0457 4.58765C14.5267 3.51942 13.772 2.58296 12.8384 1.84887C13.9955 0.939352 15.3851 0.373734 16.8485 0.216671C18.3118 0.0596076 19.7899 0.317436 21.1136 0.960686C22.4374 1.60394 23.5534 2.60665 24.3342 3.85422C25.115 5.10179 25.529 6.54387 25.529 8.01562Z" fill="#F79E1B"/>
<path d="M24.7807 12.8761V12.6236H24.8825V12.5721H24.6232V12.6236H24.725V12.8761H24.7807ZM25.2841 12.8761V12.5716H25.2046L25.1132 12.781L25.0217 12.5716H24.9422V12.8761H24.9983V12.6464L25.0841 12.8444H25.1423L25.228 12.6459V12.8761H25.2841Z" fill="#F79E1B"/>
</svg>
