<svg width="34" height="12" viewBox="0 0 34 12" fill="none" xmlns="http://www.w3.org/2000/svg">
<path d="M17.0222 1.12148L14.848 11.285H12.2189L14.3935 1.12148H17.0222ZM28.0839 7.68412L29.4681 3.86736L30.2646 7.68412H28.0839ZM31.0173 11.285H33.4492L31.3271 1.12148H29.0824C28.578 1.12148 28.1524 1.41485 27.963 1.86714L24.0185 11.285H26.7795L27.3276 9.76733H30.7008L31.0173 11.285ZM24.1555 7.96656C24.1668 5.28405 20.4459 5.1364 20.4716 3.93813C20.4794 3.57302 20.8271 3.18571 21.5866 3.08631C21.9639 3.0371 23.0013 2.99946 24.1793 3.54149L24.6406 1.38622C24.0079 1.15654 23.1937 0.935547 22.1811 0.935547C19.5825 0.935547 17.7534 2.31717 17.738 4.29552C17.7216 5.75853 19.0437 6.57496 20.0399 7.06134C21.0642 7.55963 21.4084 7.87874 21.4039 8.32427C21.3971 9.00655 20.5868 9.307 19.8308 9.31891C18.5087 9.33982 17.7415 8.96216 17.13 8.67715L16.6536 10.9042C17.2677 11.1863 18.4016 11.4314 19.578 11.4439C22.3396 11.4439 24.1465 10.0794 24.1555 7.96656ZM13.2653 1.12148L9.00561 11.285H6.22596L4.12988 3.17381C4.0025 2.67424 3.89184 2.49152 3.50485 2.28082C2.87339 1.93823 1.82953 1.61623 0.911133 1.41678L0.973861 1.12148H5.44749C6.01751 1.12148 6.53059 1.50106 6.65991 2.15762L7.76714 8.03926L10.503 1.12148H13.2653Z" fill="#1434CB"/>
</svg>
