<svg width="48" height="56" viewBox="0 0 48 56" fill="none" xmlns="http://www.w3.org/2000/svg">
<path d="M39.3447 29.2678C39.3197 24.7299 41.395 21.3048 45.5958 18.7824C43.2454 15.4562 39.6947 13.6262 35.0064 13.2676C30.5681 12.9214 25.7172 15.8271 23.9419 15.8271C22.0665 15.8271 17.7657 13.3912 14.3901 13.3912C7.41385 13.5025 0 18.8936 0 29.8614C0 33.101 0.600109 36.4478 1.80033 39.9017C3.40062 44.4396 9.17667 55.5681 15.2028 55.3826C18.3533 55.3084 20.5787 53.1693 24.6795 53.1693C28.6552 53.1693 30.7181 55.3826 34.2312 55.3826C40.3073 55.2961 45.5333 45.1815 47.0586 40.6312C38.9071 36.8352 39.3447 29.5028 39.3447 29.2678ZM32.2684 8.96459C35.6815 4.95834 35.3689 1.31068 35.2689 0C32.2559 0.173109 28.7677 2.02785 26.7799 4.31537C24.592 6.76363 23.3042 9.79304 23.5793 13.2058C26.8424 13.4531 29.8179 11.7962 32.2684 8.96459Z" fill="white"/>
</svg>
