<svg width="207" height="33" viewBox="0 0 207 33" fill="none" xmlns="http://www.w3.org/2000/svg">
<path fill-rule="evenodd" clip-rule="evenodd" d="M16.6481 30.1177C9.40945 30.1177 3.2308 23.6243 3.2308 16.5417C3.2308 9.48537 9.28013 2.863 16.5961 2.863C21.4053 2.863 24.8682 5.1641 27.6867 8.76935H31.2281C30.1681 6.87709 29.0308 5.13896 27.2988 3.78343C24.3255 1.40581 20.4735 0 16.6481 0C7.47074 0 0 7.49144 0 16.5166C0 25.5669 7.57464 32.9818 16.7 32.9818C20.4227 32.9818 24.068 31.6274 26.9893 29.3514C28.8252 27.8942 30.1173 26.002 31.3586 24.0583H27.8172C25.0241 27.6636 21.4573 30.1177 16.6481 30.1177ZM53.3574 12.86C51.1346 10.0221 48.1094 8.2326 44.3614 8.2326C37.64 8.2326 32.108 13.6285 32.108 20.276C32.108 26.9224 37.6665 32.3685 44.3614 32.3685C48.2653 32.3685 50.9788 30.7572 53.3574 27.7915V31.8307H56.2787V8.79449H53.3574V12.86ZM44.2066 29.7089C39.0614 29.7089 35.0027 25.2859 35.0027 20.3011C35.0027 15.3403 39.036 10.8923 44.2066 10.8923C49.3507 10.8923 53.3574 15.3414 53.3574 20.3011C53.3574 25.2859 49.3242 29.7089 44.2066 29.7089ZM59.8201 31.8307H62.9492V0.663552H59.8201V31.8307ZM74.7627 28.1741L66.8521 8.79449H63.7495L73.2374 31.8307H76.3908L85.8533 8.79449H82.8027L74.7627 28.1741ZM87.1454 31.8307H90.2734V8.79449H87.1454V31.8307ZM87.1454 5.82874H90.2734V0.663552H87.1454V5.82874ZM103.743 8.23151C100.795 8.23151 98.7014 9.76631 96.7627 11.8116V8.79449H93.8668V31.8307H96.9428V17.7934C96.9174 14.0865 100.019 10.8912 103.794 10.8912C108.523 10.8912 110.902 14.9566 110.902 19.15V31.8318H113.797V19.15C113.798 13.1671 110.257 8.23151 103.743 8.23151ZM142.829 0.663552L128.611 18.5357V0.663552H125.535V31.8307H128.611V23.2658L132.644 18.3061L142.907 31.8307H146.812L134.608 15.8509L146.812 0.663552H142.829ZM147.948 31.8307H151V0.663552H147.948V31.8307ZM176.256 14.5981C174.136 10.6857 169.896 8.23151 165.423 8.23151C158.755 8.23151 153.118 13.729 153.118 20.3252C153.118 26.9716 158.806 32.3674 165.477 32.3674C168.655 32.3674 171.785 31.1147 174.084 28.9415C175.481 27.6373 176.308 26.0009 177.056 24.2879H173.775C172.119 27.4843 169.198 29.7078 165.422 29.7078C163.123 29.7078 160.874 28.7873 159.168 27.2274C157.408 25.6434 156.634 23.6987 156.297 21.3987H177.781C177.783 18.9959 177.445 16.6948 176.256 14.5981ZM156.402 18.7401C157.334 14.4199 160.771 10.8912 165.477 10.8912C169.432 10.8912 173.672 13.295 174.603 18.7401H156.402ZM180.057 31.8307H183.132V8.79449H180.057V31.8307ZM180.057 5.9315H183.132V0.663552H180.057V5.9315ZM196.654 8.23151C193.654 8.23151 191.56 9.76631 189.595 11.8116V8.79449H186.648V31.8307H189.751V17.7934C189.725 14.0613 192.905 10.8912 196.704 10.8912C201.411 10.8912 203.893 14.9566 203.893 19.15V31.8318H206.788V19.15C206.788 13.1671 203.193 8.23151 196.654 8.23151Z" fill="white"/>
</svg>
