<svg width="156" height="34" viewBox="0 0 156 34" fill="none" xmlns="http://www.w3.org/2000/svg">
<path d="M141.312 10.2935L141.021 10.3857C139.887 8.04217 138.268 6.17663 136.162 4.78905C134.089 3.40145 131.482 2.70765 128.34 2.70765C126.591 2.70765 124.923 3.06224 123.336 3.77142C121.749 4.44984 120.356 5.42116 119.158 6.68537C117.992 7.91877 117.053 9.41429 116.34 11.1719C115.627 12.9295 115.271 14.8722 115.271 16.9998C115.271 19.1274 115.627 21.07 116.34 22.8276C117.053 24.5852 117.992 26.0962 119.158 27.3604C120.356 28.5938 121.749 29.5497 123.336 30.2281C124.923 30.9065 126.591 31.2456 128.34 31.2456C131.45 31.2456 133.976 30.7831 135.919 29.858C137.895 28.9022 139.563 27.4529 140.924 25.5103L141.215 25.6025L141.118 28.5627C140.373 29.3028 139.515 29.9657 138.543 30.5516C137.572 31.1066 136.519 31.5845 135.385 31.9854C134.284 32.3554 133.134 32.633 131.936 32.818C130.738 33.034 129.539 33.142 128.341 33.142C125.847 33.142 123.466 32.7566 121.199 31.9857C118.932 31.2148 116.94 30.1355 115.223 28.7479C113.506 27.3296 112.146 25.6336 111.142 23.6602C110.138 21.6559 109.636 19.4357 109.636 16.9997C109.636 14.5637 110.138 12.359 111.142 10.3856C112.146 8.38128 113.506 6.66993 115.223 5.25154C116.94 3.8331 118.932 2.75386 121.199 2.01382C123.466 1.24291 125.847 0.857462 128.341 0.857462C129.539 0.857462 130.738 0.949967 131.936 1.13498C133.134 1.31999 134.284 1.61293 135.385 2.01382C136.519 2.38384 137.572 2.86179 138.543 3.44769C139.515 4.00272 140.373 4.65025 141.118 5.3903L141.312 10.2935ZM34.252 19.1278C33.8959 19.2818 33.5558 19.4823 33.2317 19.7294C32.9076 19.9759 32.7456 20.3151 32.7456 20.747V26.4361C31.1909 28.5637 29.199 30.2134 26.7698 31.3851C24.3406 32.5569 21.6523 33.1428 18.7048 33.1428C16.2108 33.1428 13.8302 32.7573 11.563 31.9864C9.29573 31.2155 7.30378 30.1363 5.58713 28.7487C3.87051 27.3303 2.51014 25.6344 1.50605 23.661C0.502017 21.6567 0 19.4365 0 17.0005C0 14.5645 0.502017 12.3598 1.50605 10.3864C2.51014 8.38204 3.87051 6.67068 5.58713 5.2523C7.30378 3.83386 9.29573 2.75463 11.563 2.01461C13.8302 1.24369 16.2108 0.85822 18.7048 0.85822C19.9032 0.85822 21.1016 0.950725 22.3001 1.13574C23.4984 1.32075 24.6483 1.61369 25.7495 2.01458C26.8831 2.3846 27.9358 2.86255 28.9075 3.44845C29.8791 4.00348 30.7375 4.65101 31.4825 5.39105L31.6771 10.2938L31.3856 10.386C30.252 8.0425 28.6325 6.17695 26.5272 4.78937C24.4543 3.40177 21.8469 2.70797 18.7052 2.70797C16.9561 2.70797 15.2881 3.06257 13.7011 3.77177C12.114 4.45017 10.7212 5.42148 9.52279 6.68569C8.35675 7.91912 7.41748 9.41465 6.70498 11.1723C5.99236 12.9299 5.63605 14.8725 5.63605 17.0001C5.63605 19.0969 5.97615 21.0241 6.65635 22.7817C7.36894 24.5393 8.30824 26.0503 9.47425 27.3145C10.6726 28.5479 12.0654 29.5192 13.6524 30.2285C15.2395 30.9068 16.9238 31.246 18.7052 31.246C22.0737 31.246 24.9563 30.6293 27.3531 29.3959V20.7466C27.3531 20.3151 27.1751 19.9759 26.819 19.729C26.4949 19.4825 26.171 19.282 25.8473 19.1274L25.8917 18.8965C26.0534 18.9247 26.345 18.9554 26.7662 18.9886C27.1875 19.0168 27.6248 19.0476 28.078 19.0808H32.2565C32.6451 19.0526 33.0176 19.0219 33.3739 18.9886C33.73 18.9604 34.0052 18.9297 34.1996 18.8965L34.252 19.1278ZM69.442 1.82921C69.1179 1.98319 68.794 2.18372 68.4703 2.43077C68.1462 2.67726 67.9682 3.13979 67.9362 3.81835C67.9066 4.55839 67.8743 5.49887 67.8393 6.63979C67.8393 7.74988 67.8245 9.01411 67.7949 10.4325C67.7949 11.8509 67.7801 13.3927 67.7505 15.0578V20.2382C67.7208 22.2424 67.4616 23.9538 66.9728 25.3723C66.487 26.7906 65.8392 27.9778 65.0295 28.9337C64.2522 29.8896 63.3777 30.6451 62.406 31.2001C61.4666 31.7551 60.5273 32.1714 59.5881 32.4489C58.6811 32.7574 57.8228 32.9425 57.0132 33.0039C56.2034 33.0964 55.5718 33.1427 55.1184 33.1427C53.2722 33.1427 51.4907 32.9114 49.7741 32.4489C48.0574 32.0174 46.5513 31.3082 45.2558 30.3212C43.9602 29.3345 42.9238 28.0549 42.1465 26.4823C41.3691 24.9097 40.9804 22.9979 40.9804 20.7469V15.5204V10.71C40.9804 9.22988 40.9656 7.90397 40.936 6.73226C40.936 5.52967 40.9212 4.55835 40.8915 3.81831C40.8619 3.13991 40.6839 2.67738 40.3574 2.43073C40.0333 2.18423 39.7094 1.98371 39.3857 1.82917L39.4302 1.59818C39.5919 1.62638 39.8512 1.65711 40.2078 1.69037C40.5965 1.71857 40.9852 1.7493 41.3739 1.78255C41.7951 1.78255 42.2 1.79665 42.5885 1.82486H44.3375C44.7262 1.79665 45.131 1.78255 45.5521 1.78255C45.9733 1.75435 46.362 1.72362 46.7181 1.69037C47.1067 1.66217 47.3819 1.63144 47.5437 1.59818L47.5881 1.82917C47.232 1.98315 46.892 2.18368 46.5679 2.43073C46.2764 2.67722 46.1143 3.13975 46.0817 3.81831C46.0521 4.55835 46.0198 5.52967 45.9849 6.73226V20.7469C45.9849 24.1079 46.8108 26.5902 48.4626 28.1936C50.1145 29.797 52.5599 30.5987 55.7989 30.5987C56.7381 30.5987 57.807 30.4907 59.0054 30.2747C60.2039 30.0282 61.3213 29.5348 62.3577 28.7946C63.4266 28.0546 64.3173 27.0062 65.0299 25.6495C65.7748 24.2927 66.1473 22.4888 66.1473 20.2379C66.1473 17.8019 66.1325 15.7205 66.1029 13.9937C66.1029 12.2361 66.088 10.7406 66.0584 9.50718C66.0584 8.24294 66.0436 7.1637 66.014 6.26945C65.9844 5.37526 65.9521 4.55814 65.9171 3.81807C65.8874 3.13967 65.7094 2.67714 65.3829 2.43049C65.0588 2.18399 64.735 1.98346 64.4113 1.82889L64.4557 1.59794C64.8118 1.6594 65.2167 1.72116 65.6703 1.78323C66.1235 1.81143 66.5446 1.82553 66.9335 1.82553C67.2896 1.82553 67.6945 1.81143 68.1481 1.78323C68.6339 1.72177 69.055 1.66001 69.4113 1.59794L69.442 1.82921ZM104.696 10.2935L104.405 10.3857C103.271 8.04217 101.652 6.17663 99.5462 4.78905C97.4733 3.40145 94.8659 2.70765 91.7242 2.70765C89.9752 2.70765 88.3071 3.06224 86.72 3.77142C85.1329 4.44984 83.7402 5.42116 82.5418 6.68537C81.3758 7.91877 80.4365 9.41429 79.7239 11.1719C79.0114 12.9296 78.6551 14.8722 78.6551 16.9998C78.6551 19.1274 79.0114 21.07 79.7239 22.8276C80.4366 24.5852 81.3759 26.0962 82.5418 27.3604C83.7402 28.5938 85.1329 29.5497 86.72 30.2281C88.3071 30.9065 89.9752 31.2456 91.7243 31.2456C94.8336 31.2456 97.36 30.7831 99.3034 29.858C101.279 28.9022 102.947 27.4529 104.307 25.5103L104.599 25.6025L104.502 28.5627C103.757 29.3027 102.899 29.9657 101.927 30.5515C100.955 31.1065 99.9027 31.5845 98.7691 31.9854C97.6679 32.3554 96.5181 32.6329 95.3196 32.8179C94.1212 33.034 92.9228 33.142 91.7245 33.142C89.2304 33.142 86.8498 32.7565 84.5826 31.9856C82.3153 31.2147 80.3234 30.1355 78.6068 28.7479C76.8901 27.3295 75.5297 25.6336 74.5257 23.6601C73.5216 21.6558 73.0196 19.4357 73.0196 16.9997C73.0196 14.5637 73.5216 12.359 74.5257 10.3856C75.5297 8.38125 76.8901 6.66989 78.6068 5.2515C80.3234 3.83306 82.3153 2.75382 84.5826 2.01378C86.8499 1.24287 89.2305 0.857422 91.7245 0.857422C92.9228 0.857422 94.1212 0.949927 95.3197 1.13494C96.5181 1.31995 97.6679 1.61289 98.7691 2.01378C99.9027 2.3838 100.955 2.86175 101.927 3.44765C102.899 4.00268 103.757 4.65021 104.502 5.39026L104.696 10.2935ZM155.956 32.3561C155.794 32.3279 155.519 32.2972 155.13 32.2639C154.774 32.2639 154.385 32.2498 153.964 32.2216C153.543 32.2216 153.138 32.2075 152.749 32.1793H149.835C149.446 32.2075 149.057 32.2382 148.669 32.2715C148.312 32.2997 148.037 32.3304 147.843 32.3637L147.798 32.1783C148.122 32.0243 148.446 31.8238 148.77 31.5768C149.094 31.3303 149.272 30.8678 149.304 30.1892C149.334 29.4492 149.349 28.6783 149.349 27.8766C149.378 27.0748 149.393 26.1652 149.393 25.1476V21.6786V17.0071V12.3356V8.82037C149.393 7.80282 149.378 6.90858 149.349 6.13768C149.349 5.33597 149.334 4.56509 149.304 3.82505C149.275 3.14665 149.097 2.68413 148.77 2.43747C148.446 2.15996 148.122 1.94419 147.798 1.79018L147.843 1.60493C148.037 1.66638 148.312 1.71264 148.669 1.74368C149.057 1.74368 149.446 1.75778 149.835 1.78599C150.256 1.81419 150.661 1.82829 151.049 1.82829H152.749C153.138 1.80009 153.543 1.78599 153.964 1.78599C154.385 1.75778 154.774 1.72706 155.13 1.6938C155.519 1.6656 155.794 1.63487 155.956 1.60161L156 1.78694C155.644 1.94093 155.304 2.15669 154.98 2.4342C154.688 2.6807 154.526 3.14322 154.494 3.82178C154.464 4.56182 154.432 5.3327 154.397 6.13441V27.8733C154.426 28.675 154.459 29.4459 154.494 30.1859C154.523 30.8643 154.685 31.3268 154.98 31.5735C155.304 31.82 155.644 32.0205 156 32.1751L155.956 32.3561Z" fill="white"/>
</svg>
