<svg width="46" height="58" viewBox="0 0 46 58" fill="none" xmlns="http://www.w3.org/2000/svg">
<path d="M22.6229 0C20.9693 0.0077294 19.3167 0.0805689 17.6689 0.218345C14.1959 0.502608 10.7504 1.05211 7.36306 1.86193C4.90798 2.4756 2.49684 3.24991 0.145563 4.17976L0 4.23254C0 4.23254 0.286274 21.6114 0.50947 30.2204C0.566971 32.7551 1.03297 35.2644 1.88989 37.6538C2.88158 40.3722 4.20291 42.9617 5.82494 45.3655C7.52193 47.8478 9.57481 50.0729 11.9192 51.971C12.8356 52.7312 13.8016 53.431 14.811 54.0657C16.3941 55.0116 18.0469 55.8386 19.7553 56.5395C20.3206 56.7746 20.8131 57.0002 21.2595 57.1513C21.7262 57.3277 22.2044 57.4728 22.6908 57.5856C23.1773 57.4721 23.6556 57.3262 24.1222 57.1489C24.5637 56.9978 25.0611 56.7746 25.6263 56.5371C27.3339 55.836 28.9859 55.0091 30.5682 54.0633C31.5792 53.4287 32.5468 52.7289 33.4649 51.9686C35.8083 50.0712 37.8604 47.8469 39.5567 45.3655C41.179 42.9618 42.5003 40.3723 43.4918 37.6538C44.3495 35.2645 44.8163 32.7552 44.8746 30.2204C45.0954 21.6114 45.3841 4.24214 45.3841 4.24214C45.3391 4.21911 45.2929 4.19829 45.2458 4.17976C42.8937 3.2498 40.4818 2.47549 38.0259 1.86193C34.6385 1.0529 31.193 0.5042 27.72 0.220745C26.0723 0.0831351 24.4196 0.00949691 22.766 0L22.6229 0ZM22.6229 0.866184H22.7612C24.4085 0.885379 25.8859 0.938166 27.5235 1.08213C30.8629 1.35703 34.1756 1.88891 37.4315 2.67293C39.7932 3.26846 42.1121 4.01955 44.3724 4.92117C44.4195 4.93886 44.4657 4.95888 44.5107 4.98116L44.4185 10.4374C44.404 10.428 44.3885 10.4199 44.3724 10.4134C42.1128 9.51201 39.7948 8.76092 37.4339 8.16516C34.1772 7.38206 30.8637 6.85099 27.5235 6.57676C25.8859 6.43279 24.4157 6.33682 22.7685 6.31762H22.6278C20.9805 6.33922 19.4981 6.43279 17.8606 6.57676C14.521 6.85346 11.2084 7.38694 7.95259 8.17236C5.59083 8.76878 3.27202 9.52067 1.01166 10.423C0.994745 10.4294 0.978495 10.4375 0.963141 10.447L0.870951 4.97396L1.01166 4.92117C3.27124 4.01963 5.58924 3.26854 7.95016 2.67293C11.2075 1.88781 14.5219 1.35513 17.863 1.07973C19.5006 0.935766 20.9756 0.887778 22.6229 0.866184ZM23.3216 1.38445C22.5921 1.37129 21.8624 1.37769 21.1333 1.40365C20.8398 1.41565 20.4346 1.66518 20.4298 1.95551L20.4128 3.51032C20.4079 3.82704 20.83 4.07658 21.1527 4.08378C22.2735 4.10777 23.2634 4.08858 24.3502 4.15576C24.4303 4.16296 24.5007 4.21095 24.5007 4.29013L24.4934 4.60205C24.4948 4.6167 24.493 4.63148 24.4881 4.64536C24.4832 4.65925 24.4752 4.67189 24.4648 4.68241C24.4544 4.69293 24.4418 4.70107 24.4279 4.70625C24.414 4.71144 24.399 4.71354 24.3842 4.71242C23.1202 4.71242 21.798 4.65244 20.5195 4.75321C20.4516 4.75801 20.454 4.74122 20.4516 4.8084L20.3934 5.72977L20.3885 5.80175C21.9092 5.71488 23.4337 5.71488 24.9543 5.80175C25.1317 5.79641 25.302 5.73111 25.4366 5.61672C25.5712 5.50233 25.6622 5.34576 25.6943 5.17311L25.7088 3.66868C25.7088 3.35916 25.3255 3.13122 25.0756 3.11682C24.0033 3.04964 22.783 3.08563 21.6937 3.05684C21.6786 3.05624 21.6638 3.05263 21.6502 3.0462C21.6365 3.03978 21.6243 3.03068 21.6144 3.01947C21.6044 3.00825 21.5968 2.99514 21.5921 2.98094C21.5874 2.96675 21.5857 2.95175 21.587 2.93687L21.6088 2.58895C21.6088 2.52177 21.6549 2.50257 21.7228 2.50018C22.8 2.46179 24.4085 2.51217 25.5123 2.54576C25.5526 2.53903 25.5893 2.51854 25.6159 2.48785C25.6424 2.45716 25.6573 2.41822 25.6579 2.37781V1.6172C25.6579 1.57641 25.5803 1.45644 25.505 1.45404C24.7776 1.42186 24.0497 1.39706 23.3216 1.38445ZM18.7606 1.53802C17.7344 1.55721 15.5073 1.83794 14.2433 1.9939L14.2361 6.33442V6.3896L15.3763 6.24564C15.3811 6.24511 15.3858 6.24354 15.39 6.24106C15.3942 6.23857 15.3978 6.23523 15.4006 6.23124C15.406 6.22447 15.4086 6.21588 15.4078 6.20725V4.95236L17.7053 4.70762C17.9067 4.67163 18.142 4.818 18.3264 5.11312C18.4739 5.36267 18.568 5.63952 18.6029 5.92652L19.7359 5.84254C19.7602 5.84254 19.8087 5.84254 19.8038 5.81855C19.7702 5.21363 19.5037 4.64441 19.059 4.22774C19.2071 4.16847 19.3328 4.06492 19.4185 3.93156C19.5042 3.79821 19.5456 3.64171 19.537 3.48393C19.5489 3.03217 19.5311 2.58013 19.4836 2.13067C19.4448 1.96659 19.3526 1.81967 19.2211 1.71257C19.0895 1.60547 18.926 1.54413 18.7558 1.53802H18.7606ZM27.4701 1.5836C27.2341 1.57469 27.0028 1.65038 26.8187 1.79674C26.6346 1.94311 26.5101 2.1503 26.4682 2.38021L26.4439 5.24749C26.4517 5.40993 26.5127 5.56547 26.6177 5.69058C26.7228 5.81569 26.8661 5.90357 27.0262 5.94092C28.5061 6.07768 29.9617 6.20965 31.6114 6.45679C31.6381 6.45679 31.689 6.43999 31.689 6.416V5.41785C31.689 5.39625 31.6405 5.35066 31.6235 5.34586C30.5221 5.2091 29.0689 5.01715 27.7685 4.88278C27.7299 4.87352 27.6954 4.85217 27.67 4.8219C27.6446 4.79164 27.6299 4.75408 27.6278 4.71482V2.76651C27.6278 2.68493 27.7491 2.64174 27.8316 2.64654C29.115 2.75211 30.3935 2.98245 31.6745 3.11922C31.7085 3.12402 31.7618 3.10242 31.7642 3.06883L31.7885 2.15226C31.7869 2.13336 31.7792 2.11548 31.7665 2.10123C31.7538 2.08698 31.7369 2.07711 31.7182 2.07308C30.3072 1.87605 28.8891 1.71284 27.4701 1.5836ZM32.2737 2.15226C32.2446 2.15226 32.2203 2.18585 32.2203 2.21225C32.2058 2.86968 32.1112 5.70817 32.0918 6.46398V6.52877C32.4678 6.59355 32.8827 6.64394 33.1908 6.70632C33.2247 6.71112 33.2757 6.68713 33.2757 6.65354C33.2708 6.15686 33.2757 5.57861 33.266 5.12752C33.266 5.09633 33.2805 5.09393 33.3145 5.09873C34.2088 5.25889 35.1001 5.43488 35.988 5.62659C36.0074 5.62659 36.1142 5.64339 36.1142 5.69858C36.1069 6.21925 36.0972 6.65834 36.0826 7.17901C36.0819 7.1998 36.0878 7.22029 36.0996 7.23754C36.1113 7.25478 36.1283 7.26789 36.1481 7.27498C36.4999 7.35416 36.8347 7.43574 37.1671 7.51492C37.2568 7.53412 37.2714 7.51732 37.2738 7.48613C37.3272 6.404 37.3466 4.66923 37.3611 3.2056C37.3611 3.1864 37.3539 3.15761 37.3369 3.15281C36.9657 3.06883 36.6163 2.98006 36.2379 2.90088C36.2039 2.89368 36.1845 2.94886 36.1821 2.98485C36.1457 3.51992 36.1602 4.0166 36.119 4.54926C36.119 4.56846 36.119 4.57806 36.0972 4.57326C35.1995 4.3909 34.2412 4.19415 33.3509 4.02859C33.3266 4.02379 33.3363 3.98061 33.3388 3.95421L33.346 2.3874C33.3448 2.37026 33.338 2.35397 33.3267 2.34098C33.3153 2.328 33.2999 2.31903 33.283 2.31542C32.9462 2.258 32.6114 2.20361 32.2737 2.15226ZM12.8265 2.20745C12.7966 2.20564 12.7666 2.20564 12.7368 2.20745C11.4194 2.4138 10.0948 2.68973 8.75803 2.97526C8.54366 3.03668 8.35058 3.15541 8.20004 3.31837C8.05941 3.44681 7.97135 3.62184 7.95259 3.81025L7.96229 6.49278C7.97254 6.72817 8.06319 6.95317 8.21945 7.13102C8.2727 7.21276 8.34602 7.27983 8.43256 7.32599C8.5191 7.37214 8.61605 7.39586 8.71437 7.39495C10.0291 7.10842 11.35 6.85003 12.6761 6.61995C12.9308 6.56048 13.159 6.42068 13.3263 6.22165C13.4693 6.07145 13.5536 5.87582 13.564 5.66978L13.5592 2.87928C13.5506 2.78608 13.5224 2.69567 13.4765 2.61386C13.4305 2.53205 13.3678 2.46064 13.2923 2.4042C13.1654 2.28838 13.0014 2.22043 12.8289 2.21225L12.8265 2.20745ZM18.0595 2.68013C18.1072 2.67745 18.1542 2.69321 18.1904 2.7241C18.2266 2.75499 18.2493 2.79859 18.2536 2.84569L18.2609 3.29918C18.2592 3.39407 18.2245 3.48549 18.1626 3.55804C18.1008 3.63059 18.0155 3.67983 17.9212 3.69748L15.3448 3.94701L15.3229 3.92782V2.95126L15.3448 2.94166L18.0401 2.68253C18.0466 2.68219 18.053 2.68219 18.0595 2.68253V2.68013ZM11.9459 3.37596C12.0124 3.37792 12.0774 3.39605 12.1351 3.42874C12.1779 3.45568 12.2127 3.49348 12.2357 3.53822C12.2588 3.58295 12.2693 3.63297 12.2661 3.68308L12.2443 5.37226C12.2465 5.42062 12.2368 5.4688 12.2161 5.51267C12.1954 5.55654 12.1643 5.59481 12.1254 5.6242C12.0381 5.68283 11.9386 5.72137 11.8343 5.73697C11.0293 5.89554 10.223 6.04751 9.41549 6.19285C9.37906 6.20189 9.34106 6.20292 9.30417 6.19587C9.26729 6.18883 9.23241 6.17387 9.202 6.15206C9.17413 6.11899 9.15332 6.08069 9.14081 6.03945C9.1283 5.99822 9.12436 5.9549 9.12922 5.91212V4.17016C9.13058 4.08322 9.16527 4.00003 9.22626 3.93742C9.30772 3.86336 9.40861 3.81347 9.51739 3.79345C10.2209 3.66388 11.1428 3.48393 11.8658 3.38076C11.8923 3.37654 11.9191 3.37493 11.9459 3.37596ZM38.1714 3.37596L38.169 3.37836C38.1496 3.37836 38.1496 3.40715 38.1496 3.42394C38.1156 4.87798 38.0768 6.22404 38.0647 7.67808C38.0647 7.70927 38.0793 7.75006 38.1084 7.75726C39.8813 8.22869 41.6287 8.78928 43.3438 9.43684C43.4214 9.46324 43.419 9.40565 43.419 9.38406C43.4263 9.05294 43.4432 8.71702 43.4263 8.3859C43.4242 8.36857 43.4174 8.3521 43.4068 8.33819C43.3961 8.32427 43.3819 8.31341 43.3656 8.30672C42.0471 7.80447 40.7029 7.37118 39.3384 7.00865C39.3251 7.00421 39.3136 6.99583 39.3054 6.98467C39.2971 6.9735 39.2925 6.96009 39.2923 6.94626L39.3117 6.51437C39.3117 6.49518 39.3456 6.49038 39.3651 6.49518C40.7326 6.8748 42.0842 7.30865 43.4166 7.79565C43.4408 7.80285 43.4408 7.77166 43.4408 7.75006C43.4581 7.37595 43.4581 7.00126 43.4408 6.62714C43.44 6.61312 43.435 6.59965 43.4263 6.58852C43.4177 6.57738 43.4058 6.5691 43.3923 6.56476C42.0852 6.09412 40.7595 5.67549 39.4184 5.30987C39.399 5.30507 39.3748 5.28588 39.3748 5.26668V4.806C39.3748 4.7868 39.4063 4.77481 39.4257 4.78201C40.794 5.12752 42.2982 5.64579 43.3438 6.02729C43.436 6.06089 43.4893 6.04649 43.4893 5.96251C43.4893 5.5858 43.5039 5.55941 43.4845 5.1851C43.4796 5.13712 43.4748 5.08913 43.4311 5.07233C41.7089 4.41467 39.9523 3.84841 38.169 3.37596H38.1714ZM6.7056 3.52952C6.63705 3.52889 6.56867 3.53614 6.50181 3.55111C4.92488 3.94941 3.34067 4.54446 1.75646 5.11552C1.73479 5.12869 1.71678 5.14699 1.70408 5.16878C1.69137 5.19057 1.68436 5.21515 1.68368 5.24029V8.75781L1.69096 9.54961C1.69096 9.54961 2.83362 9.12492 3.08108 9.04574C3.11262 9.03614 3.11262 9.00495 3.11262 8.97136L3.08836 7.72367C3.08836 7.68768 3.09321 7.63489 3.12718 7.62769L7.0695 6.4232C7.20212 6.37552 7.31826 6.29146 7.4043 6.18086C7.49017 6.07498 7.53492 5.94221 7.53045 5.80655L7.48921 4.16776C7.47895 4.07289 7.44778 3.9814 7.3979 3.89973C7.34802 3.81806 7.28064 3.7482 7.20051 3.69508C7.05585 3.59277 6.88339 3.53592 6.7056 3.53192V3.52952ZM6.01175 4.71962C6.09909 4.69563 6.18157 4.794 6.18642 4.87078C6.20973 5.06986 6.21946 5.27026 6.21554 5.47063C6.21311 5.57861 6.05542 5.70338 5.94867 5.73457L3.07623 6.66074C3.04954 6.67033 3.00102 6.66074 3.00102 6.63194L3.00587 5.77296C3.00587 5.73217 3.05439 5.69858 3.09321 5.68658C4.04605 5.30795 5.02058 4.98508 6.01175 4.71962ZM22.914 7.07343C24.4982 7.09743 25.9369 7.14541 27.5235 7.28458C30.8621 7.55966 34.174 8.09154 37.4291 8.87538C39.7909 9.47071 42.1097 10.2218 44.37 11.1236C44.3817 11.1284 44.3931 11.134 44.404 11.1404C44.3974 11.4987 44.3917 11.857 44.387 12.2153H22.914V7.07343ZM22.145 7.07823L22.1425 18.1587H14.993C14.8887 18.1491 14.9566 18.1035 15.0294 18.0339C15.5415 17.6555 16.1352 17.3993 16.764 17.2853C16.8174 17.2805 16.8319 17.2517 16.7567 17.1557C16.4669 16.8699 16.1016 16.6706 15.7025 16.5806C15.3035 16.4906 14.8869 16.5137 14.5005 16.647C14.1532 16.7579 13.8362 16.9459 13.5738 17.1967C13.3114 17.4475 13.1105 17.7544 12.9866 18.0939C12.9816 18.1154 12.9692 18.1346 12.9515 18.1482C12.9338 18.1617 12.912 18.1688 12.8896 18.1683C12.51 18.1918 12.1297 18.2022 11.7494 18.1995C11.6887 18.1995 11.6596 18.1227 11.6644 18.0651C11.7142 17.8251 11.8139 17.5979 11.9572 17.398C12.1004 17.1981 12.2841 17.0298 12.4966 16.9038C12.8731 16.6585 13.3062 16.5116 13.7557 16.4767C13.7708 16.4722 13.7846 16.4641 13.7959 16.4532C13.8072 16.4422 13.8156 16.4287 13.8203 16.4138C13.8251 16.3989 13.8262 16.3831 13.8233 16.3677C13.8205 16.3523 13.814 16.3378 13.8042 16.3255C13.73 16.24 13.6443 16.1649 13.5495 16.1024C13.1757 15.903 12.7437 15.8377 12.3268 15.9176C11.7299 15.9749 11.1724 16.238 10.7519 16.6609C10.3314 17.0837 10.0747 17.6394 10.0269 18.2306C10.0026 18.3746 10.0414 18.4082 9.89828 18.4562C9.62656 18.5474 9.11709 18.6098 8.84537 18.6673C8.79685 18.6745 8.72407 18.5642 8.7362 18.5162C8.83701 18.0604 9.03922 17.6325 9.32816 17.2637C9.548 16.9721 9.83164 16.7334 10.1579 16.5655C10.2209 16.5343 10.2792 16.4599 10.2209 16.4119C9.60715 15.884 8.35046 16.4407 7.84341 16.9902C7.36465 17.6159 7.128 18.3904 7.17625 19.1736C7.17625 19.212 7.21022 19.272 7.17625 19.2864C6.85817 19.4201 6.5344 19.5402 6.20583 19.6463C6.17672 19.6535 6.17187 19.5791 6.16702 19.5503C6.06993 18.9836 6.19768 18.4018 6.52364 17.9259C6.66609 17.685 6.87028 17.4856 7.1156 17.3477C7.13986 17.3333 7.13501 17.3045 7.1156 17.2805C6.8366 16.923 5.73518 17.1797 5.39796 17.506C4.62162 18.2546 4.67742 18.9817 4.64103 20.1382C4.6386 20.1934 4.56825 20.4045 4.50517 20.4333C4.36735 20.5145 4.2163 20.5713 4.05878 20.6013C4.00783 20.6157 4.00298 20.6348 3.99085 20.5845C3.94894 20.4495 3.8767 20.3256 3.77953 20.2222C3.68236 20.1188 3.56278 20.0384 3.42975 19.9872C3.29672 19.9359 3.1537 19.9151 3.01139 19.9263C2.86908 19.9375 2.73117 19.9804 2.608 20.0518C2.50401 20.1179 2.41559 20.2054 2.34871 20.3082C2.28183 20.411 2.23806 20.5269 2.22035 20.6479C2.20264 20.7689 2.2114 20.8923 2.24605 21.0097C2.2807 21.127 2.34043 21.2357 2.4212 21.3283C2.45759 21.3691 2.46972 21.4099 2.41392 21.4266C2.28417 21.4661 2.16371 21.5309 2.05961 21.617C1.95552 21.7032 1.86988 21.8091 1.80772 21.9284C1.74557 22.0478 1.70817 22.1782 1.69769 22.3121C1.68722 22.446 1.7039 22.5805 1.74675 22.7079C1.80512 22.8511 1.90381 22.9747 2.03111 23.064C2.1584 23.1533 2.30895 23.2046 2.46487 23.2118C2.78415 23.2206 3.09815 23.13 3.3625 22.9527C3.37365 22.9448 3.38626 22.9392 3.39961 22.9361C3.41296 22.933 3.42679 22.9326 3.44031 22.9348C3.45383 22.9371 3.46677 22.9419 3.47839 22.9491C3.49002 22.9563 3.5001 22.9656 3.50807 22.9767C3.63919 23.1849 3.84847 23.3331 4.08997 23.3889C4.33148 23.4447 4.5855 23.4034 4.7963 23.2742C5.18932 23.0174 5.36399 22.6191 5.07287 21.9329C5.05588 21.8945 5.12139 21.8225 5.15535 21.8034C7.47954 20.4803 10.1019 19.7544 12.7828 19.6919C13.1608 19.7243 13.5327 19.8057 13.8891 19.9342C13.9085 19.9382 13.9272 19.9447 13.9449 19.9534L13.9498 22.2113C13.9246 22.2342 13.897 22.2543 13.8673 22.2712C13.3695 22.5728 12.9976 23.0411 12.8192 23.5909C12.8095 23.6317 12.8047 23.6413 12.7343 23.6485C12.2661 23.6941 11.7663 23.7613 11.3005 23.7973C11.2738 23.8021 11.2229 23.7517 11.2326 23.7253C11.5701 22.8328 12.1862 22.0697 12.9915 21.5466C13.0124 21.5259 13.026 21.4991 13.0304 21.4702C13.0348 21.4413 13.0296 21.4117 13.0157 21.3859C12.9018 21.2778 12.7613 21.2008 12.6082 21.1627C12.2031 21.1323 11.7963 21.1948 11.4197 21.3455C11.043 21.4962 10.7067 21.7309 10.4369 22.0313C9.95335 22.6272 9.68673 23.3667 9.67993 24.1308C9.67751 24.1836 9.68721 24.2699 9.63384 24.2867C9.33301 24.3803 9.00064 24.4643 8.68768 24.5507C8.65129 24.5603 8.60277 24.5243 8.59549 24.4859C8.5165 24.0044 8.58688 23.5105 8.79736 23.0693C9.00784 22.6281 9.34853 22.2604 9.77455 22.0145C9.89828 21.9185 9.68236 21.7698 9.52709 21.7698C9.07279 21.7454 8.62118 21.8528 8.22771 22.0787C7.83423 22.3046 7.51601 22.6392 7.31211 23.0414C7.08809 23.6527 7.06264 24.3179 7.23933 24.9442C7.24661 24.9994 7.28542 25.0953 7.22477 25.1097C7.03311 25.1553 6.58187 25.3257 6.44116 25.3689C6.39021 25.3857 6.35625 25.3617 6.32713 25.2969C6.2165 24.9161 6.19903 24.5147 6.27619 24.126C6.38608 23.6828 6.61007 23.2753 6.92637 22.9431C6.94578 22.9191 6.95305 22.8663 6.92637 22.8543C6.63804 22.7254 6.3123 22.7041 6.00932 22.7943C5.762 22.8562 5.53087 22.9696 5.33132 23.1268C5.13178 23.284 4.96841 23.4815 4.8521 23.7061C4.46635 24.4187 4.56582 25.1049 4.97582 26.1175C4.99523 26.1655 5.01949 26.2566 4.97582 26.2854L4.64346 26.4774C4.60221 26.5086 4.56582 26.4822 4.53671 26.4414C4.40328 26.2542 4.23588 25.9567 4.02724 25.8655C3.86288 25.7846 3.67925 25.7496 3.49623 25.7644C3.31321 25.7792 3.13777 25.8432 2.98889 25.9495C2.84328 26.0747 2.73806 26.2395 2.68631 26.4233C2.63455 26.6072 2.63854 26.802 2.69777 26.9837C2.7656 27.1132 2.84691 27.2355 2.94037 27.3484C2.96463 27.382 2.93794 27.4347 2.90883 27.4611C2.76569 27.5859 2.56919 27.6771 2.45273 27.7971C2.3265 27.9579 2.25598 28.1546 2.25161 28.3581C2.24724 28.5617 2.30926 28.7612 2.42847 28.9272C2.54701 29.0947 2.72105 29.2158 2.92044 29.2697C3.11983 29.3236 3.332 29.3069 3.5202 29.2223C3.71548 29.1399 3.90371 29.042 4.08304 28.9296C4.14854 28.8864 4.19221 28.8072 4.25286 28.8696C4.3999 29.0352 4.58681 29.1615 4.7963 29.2367C4.94178 29.2751 5.09398 29.2817 5.2423 29.256C5.39062 29.2303 5.5315 29.173 5.65512 29.0879C5.80523 29.0176 5.92706 28.8994 6.00099 28.7523C6.07492 28.6052 6.09665 28.4377 6.06269 28.2769C5.98636 28.0425 5.86893 27.8232 5.71577 27.6291C5.63571 27.5451 5.63086 27.5499 5.71577 27.4995C6.98159 26.7603 8.33404 26.177 9.74301 25.7624C11.0712 25.3673 12.4577 25.1993 13.843 25.2657H13.9546L13.9619 29.9421H1.35616C1.22515 24.8242 1.07474 16.7214 0.977697 11.1404C0.988613 11.134 0.999961 11.1284 1.01166 11.1236C3.27117 10.2219 5.58918 9.47079 7.95016 8.87538C11.206 8.0914 14.5187 7.55953 17.8581 7.28458C19.2847 7.16227 20.7155 7.09344 22.1474 7.07823H22.145ZM14.6533 9.03614C14.049 9.05 13.463 9.24402 12.9721 9.5928C12.2782 10.0439 11.8658 11.4475 11.7833 11.949C11.7791 11.972 11.7673 11.993 11.7497 12.0086C11.7321 12.0242 11.7098 12.0336 11.6863 12.0354C11.1343 12.1043 10.5867 12.2044 10.0463 12.3353C10.0293 12.3377 10.0172 12.3113 10.0172 12.2945C10.0592 11.7665 10.2796 11.2679 10.6431 10.8789C11.012 10.5272 11.4123 10.2092 11.8391 9.92872C11.8707 9.90233 11.8488 9.82075 11.81 9.80635C11.5018 9.68451 11.1722 9.62433 10.8403 9.62927C10.5084 9.63421 10.1808 9.70419 9.87644 9.83514C9.44695 10.0153 9.07109 10.3009 8.78451 10.665C8.49792 11.029 8.3101 11.4594 8.23886 11.9154C8.18234 12.2402 8.15877 12.5698 8.1685 12.8992C8.17336 12.94 8.09572 12.9424 8.05933 12.9544C7.46252 13.1391 6.8366 13.3551 6.33684 13.5206C6.31258 13.5302 6.24222 13.5254 6.24222 13.4966C6.22352 12.9428 6.37126 12.3959 6.66678 11.925C6.95791 11.4571 7.49892 11.1932 7.89193 10.7997C7.91862 10.7709 7.95986 10.6941 7.91862 10.6773C6.92394 10.2814 5.98506 10.6869 5.19174 11.5771C4.92313 11.9674 4.74103 12.4094 4.65741 12.8742C4.57379 13.339 4.59053 13.8161 4.70653 14.274C4.72837 14.3604 4.70653 14.454 4.66044 14.4732C4.47958 14.5569 4.29315 14.6282 4.10245 14.6867C4.094 14.6897 4.08501 14.6907 4.07611 14.6898C4.06721 14.6889 4.05862 14.686 4.05097 14.6814C4.04332 14.6768 4.03679 14.6706 4.03185 14.6632C4.02691 14.6559 4.02367 14.6475 4.02239 14.6387C3.79676 13.9285 2.95493 14.0677 2.57404 14.2836C2.37274 14.3957 2.22435 14.5819 2.16119 14.8016C2.09803 15.0214 2.12521 15.2569 2.23682 15.4569C2.24253 15.4654 2.24645 15.4748 2.24833 15.4848C2.2502 15.4948 2.25 15.505 2.24773 15.5149C2.24546 15.5248 2.24116 15.5341 2.23512 15.5423C2.22907 15.5505 2.22139 15.5574 2.21256 15.5625C2.08414 15.6232 1.96923 15.7086 1.87451 15.8136C1.7798 15.9187 1.70718 16.0414 1.66089 16.1745C1.6146 16.3076 1.59556 16.4485 1.60489 16.5889C1.61422 16.7294 1.65172 16.8666 1.71522 16.9926C1.82242 17.1585 1.98485 17.2821 2.17445 17.3421C2.36404 17.4021 2.56888 17.3948 2.75356 17.3213C2.96387 17.2411 3.16413 17.1373 3.35037 17.0117C3.36209 17.006 3.37528 17.0038 3.38825 17.0055C3.40122 17.0072 3.41338 17.0127 3.42315 17.0213C3.49818 17.1262 3.59407 17.2147 3.70494 17.2816C3.8158 17.3484 3.9393 17.3922 4.06788 17.4102C4.19645 17.4281 4.32738 17.4199 4.45263 17.3861C4.57789 17.3522 4.69483 17.2934 4.7963 17.2133C5.07529 17.0165 5.18446 16.983 5.29121 16.6278C5.3071 16.4995 5.29589 16.3692 5.25831 16.2453C5.22073 16.1214 5.15759 16.0066 5.07287 15.908C5.04375 15.884 5.07044 15.812 5.10441 15.7953C8.25784 14.1886 11.738 13.3085 15.2841 13.2207C16.5714 13.2584 17.8079 13.7261 18.7922 14.5476C18.8089 14.5715 18.8314 14.5908 18.8577 14.6038C18.884 14.6168 18.9132 14.6231 18.9426 14.6219C18.9725 14.6096 18.9996 14.5913 19.0221 14.5682C19.0447 14.5451 19.0622 14.5176 19.0736 14.4876C19.1559 14.1979 19.153 13.8911 19.0654 13.603C18.9777 13.3149 18.8089 13.0574 18.5787 12.8608C18.1771 12.4466 17.6604 12.1594 17.0939 12.0354C17.0648 12.0282 17.0454 11.9658 17.0697 11.9466C17.3004 11.7165 17.5772 11.5367 17.8824 11.4187C18.3673 11.3378 18.8584 11.2977 19.3502 11.2988C19.3841 11.2964 19.4351 11.2628 19.4229 11.2316C19.3268 10.9663 19.1548 10.7343 18.9278 10.5639C18.7008 10.3935 18.4286 10.2921 18.1444 10.2718C17.5724 10.2013 16.9917 10.2841 16.4632 10.5118C15.9172 10.8038 15.4891 11.2721 15.2501 11.8386C15.243 11.853 15.2319 11.865 15.2182 11.8735C15.2045 11.882 15.1887 11.8865 15.1725 11.8866C14.6924 11.8694 14.2119 11.8638 13.7314 11.8698C13.6975 11.8698 13.6465 11.8698 13.6465 11.8362C13.7168 11.369 13.9331 10.9352 14.2652 10.5958C14.7477 10.1821 15.3084 9.86731 15.9149 9.66958C15.961 9.65519 16.0119 9.58321 15.9852 9.54721C15.8585 9.37415 15.6912 9.23416 15.4976 9.13932C15.2231 9.0673 14.9397 9.03417 14.6558 9.04094L14.6533 9.03614ZM22.914 12.892H44.3724C44.3433 14.538 44.3118 16.3303 44.2754 18.1587H22.914V12.892ZM14.6388 18.7177L30.8108 18.7249C30.8204 18.7242 30.8299 18.7269 30.8375 18.7327C30.8451 18.7385 30.8503 18.7468 30.8521 18.7561L30.8472 31.0842C30.8351 31.7101 30.7178 32.3296 30.5003 32.9174C29.8564 34.656 28.6214 36.1191 27.0068 37.0563C25.7297 37.8113 24.2731 38.2178 22.7854 38.2344C20.7685 38.2102 18.8256 37.479 17.3026 36.171C16.4797 35.4915 15.8143 34.6449 15.3517 33.6885C14.8892 32.7321 14.6402 31.6884 14.6218 30.6283L14.6048 18.7633C14.6048 18.7321 14.6072 18.7177 14.6388 18.7177ZM31.6066 18.9241H44.2633C44.2341 20.4717 44.2026 22.0337 44.1808 23.5453H31.6066V19.9582V18.9241ZM15.0148 19.0944C14.9833 19.0944 14.9808 19.1064 14.9808 19.1376L14.9978 30.542C15.0133 31.5609 15.2496 32.5647 15.6907 33.4857C16.1318 34.4067 16.7675 35.2233 17.5549 35.8806C19.0017 37.1358 20.8538 37.8394 22.7782 37.8649C24.1989 37.8486 25.5893 37.4567 26.8054 36.73C28.3496 35.8245 29.5279 34.4166 30.1388 32.747C30.3459 32.1819 30.4573 31.5869 30.4687 30.9859L30.4736 19.1328C30.4733 19.1281 30.472 19.1235 30.4699 19.1192C30.4678 19.115 30.4648 19.1112 30.4612 19.108C30.4576 19.1049 30.4534 19.1025 30.4489 19.101C30.4444 19.0995 30.4396 19.0989 30.4348 19.0992L15.0148 19.0944ZM25.7768 19.8238C25.776 19.8238 25.7776 19.8238 25.7768 19.8238C25.8242 19.8309 25.8712 19.8504 25.9084 19.8804C25.9455 19.9104 25.9738 19.9497 25.9903 19.9942L26.5774 21.7098C26.5893 21.7364 26.5948 21.7655 26.5936 21.7946C26.5923 21.8237 26.5843 21.8522 26.5701 21.8777C26.5543 21.8967 26.5342 21.9118 26.5115 21.9218C26.4887 21.9318 26.4639 21.9364 26.4391 21.9353C26.4056 21.9361 26.3727 21.9262 26.3452 21.9073C26.3177 21.8883 26.2971 21.8611 26.2862 21.8297L26.194 21.5298H25.3934L25.3061 21.8369C25.2818 21.9329 25.2091 21.9425 25.1339 21.9425C25.1122 21.9395 25.0915 21.932 25.0731 21.9204C25.0547 21.9088 25.039 21.8934 25.0271 21.8753C25.0132 21.858 25.0037 21.8376 24.9994 21.8159C24.9952 21.7942 24.9964 21.7718 25.0029 21.7506L25.5657 20.0038C25.5782 19.9562 25.6051 19.9134 25.6428 19.8813C25.6805 19.8491 25.7273 19.8291 25.7768 19.8238ZM23.9257 19.8406C23.9443 19.8397 23.9629 19.8397 23.9815 19.8406C24.1052 19.8326 24.2281 19.8651 24.3312 19.9332C24.4343 20.0013 24.5118 20.1012 24.5516 20.2173C24.5565 20.2315 24.5583 20.2465 24.5572 20.2614C24.556 20.2763 24.5517 20.2908 24.5447 20.3041C24.5377 20.3173 24.528 20.329 24.5162 20.3384C24.5045 20.3479 24.4909 20.3548 24.4764 20.3589C24.4473 20.3739 24.4134 20.3772 24.3818 20.3683C24.3503 20.3594 24.3233 20.3389 24.3066 20.3109C24.2759 20.2512 24.2304 20.2001 24.1745 20.1623C24.1185 20.1246 24.0538 20.1014 23.9863 20.095C23.9147 20.0993 23.8459 20.1244 23.7886 20.167C23.7312 20.2097 23.6878 20.2681 23.6637 20.3349C23.578 20.4998 23.5323 20.6822 23.5302 20.8676C23.5255 21.0559 23.5637 21.2429 23.6418 21.4146C23.6706 21.4888 23.722 21.5523 23.789 21.5962C23.856 21.6401 23.9352 21.6622 24.0154 21.6594C24.1402 21.6229 24.2483 21.5449 24.3217 21.4387C24.395 21.3325 24.4291 21.2045 24.4182 21.0763V20.9828H24.0907C24.0708 20.9836 24.051 20.9801 24.0326 20.9727C24.0142 20.9652 23.9977 20.9539 23.9841 20.9396C23.9705 20.9252 23.9602 20.9082 23.9539 20.8895C23.9476 20.8709 23.9454 20.8511 23.9475 20.8316C23.9475 20.7764 23.9645 20.7116 24.0907 20.7116H24.5565C24.7117 20.7116 24.7336 20.8268 24.7336 20.9276C24.7365 21.0497 24.7276 21.1718 24.7069 21.2923C24.6586 21.5183 24.5294 21.7194 24.343 21.8585C24.2329 21.924 24.1074 21.9596 23.9791 21.9617C23.8637 21.9598 23.7512 21.9263 23.6539 21.8648C23.5567 21.8034 23.4786 21.7165 23.4283 21.6138C23.3046 21.3854 23.2436 21.129 23.2512 20.87C23.2464 20.6138 23.3136 20.3613 23.4453 20.1406C23.4901 20.052 23.5585 19.9772 23.6432 19.9243C23.7279 19.8714 23.8256 19.8425 23.9257 19.8406ZM16.6767 19.8454C16.6799 19.8454 16.6831 19.8454 16.6864 19.8454C17.1303 19.8502 17.2759 20.1118 17.2759 20.2054C17.2759 20.2893 17.1279 20.3973 17.0454 20.2989C16.9981 20.2456 16.9394 20.2032 16.8735 20.175C16.8076 20.1468 16.7363 20.1334 16.6645 20.1358C16.5865 20.1278 16.508 20.1462 16.4419 20.1881C16.3758 20.2299 16.326 20.2927 16.3006 20.3661C16.2933 20.4023 16.2934 20.4395 16.301 20.4756C16.3086 20.5117 16.3235 20.5459 16.3448 20.5761C16.3661 20.6064 16.3934 20.6321 16.425 20.6517C16.4566 20.6712 16.4918 20.6843 16.5287 20.69C16.7567 20.7037 16.9784 20.7694 17.1764 20.882H17.174C17.2414 20.9313 17.2948 20.997 17.3292 21.0726C17.3636 21.1482 17.3778 21.2313 17.3705 21.3139C17.3742 21.4695 17.3158 21.6204 17.208 21.7338C17.1282 21.808 17.0338 21.865 16.9307 21.9013C16.8276 21.9377 16.7179 21.9525 16.6087 21.9449C16.4819 21.9495 16.3561 21.9208 16.244 21.8618C16.132 21.8028 16.0377 21.7156 15.9707 21.609C15.961 21.585 15.9464 21.4578 16.0532 21.4218C16.0889 21.4135 16.1263 21.415 16.1613 21.4259C16.1963 21.4369 16.2277 21.4571 16.2521 21.4842C16.3556 21.5783 16.4901 21.632 16.6306 21.6354C16.761 21.6395 16.8885 21.5969 16.9896 21.5154C17.0265 21.4802 17.0518 21.4348 17.0622 21.3852C17.0726 21.3355 17.0676 21.2839 17.0478 21.2371C16.9971 21.1611 16.9272 21.0995 16.8452 21.0583C16.7631 21.0171 16.6716 20.9977 16.5796 21.002C16.4239 21.001 16.2745 20.9409 16.1623 20.834C16.102 20.7721 16.0558 20.698 16.0269 20.6169C15.998 20.5357 15.9871 20.4494 15.9949 20.3637C16.0028 20.2846 16.0288 20.2083 16.0708 20.1406C16.1128 20.0728 16.1698 20.0154 16.2375 19.9726C16.3675 19.8873 16.5206 19.8429 16.6767 19.8454ZM20.6772 19.8454C20.6764 19.8454 20.678 19.8454 20.6772 19.8454C20.6821 19.8452 20.6893 19.8452 20.6942 19.8454H21.5554C21.594 19.8454 21.6311 19.8606 21.6584 19.8876C21.6857 19.9146 21.701 19.9512 21.701 19.9894C21.701 20.0276 21.6857 20.0642 21.6584 20.0912C21.6311 20.1182 21.594 20.1334 21.5554 20.1334L21.2789 20.1382V21.7746C21.2742 21.8111 21.2562 21.8446 21.2283 21.869C21.2004 21.8933 21.1644 21.9067 21.1272 21.9067C21.09 21.9067 21.0541 21.8933 21.0262 21.869C20.9983 21.8446 20.9803 21.8111 20.9756 21.7746V20.1358H20.6942C20.6556 20.138 20.6177 20.125 20.5888 20.0995C20.5599 20.0741 20.5424 20.0384 20.5401 20.0002C20.5379 19.962 20.5511 19.9245 20.5768 19.8959C20.6025 19.8674 20.6386 19.8501 20.6772 19.8478V19.8454ZM22.0358 19.8454C22.0366 19.8454 22.0374 19.8454 22.0382 19.8454C22.0431 19.8452 22.0479 19.8452 22.0528 19.8454H22.9116C22.9502 19.8454 22.9872 19.8606 23.0145 19.8876C23.0418 19.9146 23.0572 19.9512 23.0572 19.9894C23.0572 20.0276 23.0418 20.0642 23.0145 20.0912C22.9872 20.1182 22.9502 20.1334 22.9116 20.1334L22.635 20.1382V21.7746C22.6304 21.8111 22.6124 21.8446 22.5845 21.869C22.5565 21.8933 22.5206 21.9067 22.4834 21.9067C22.4462 21.9067 22.4103 21.8933 22.3823 21.869C22.3544 21.8446 22.3365 21.8111 22.3318 21.7746V20.1358H22.0528C22.0142 20.138 21.9763 20.125 21.9474 20.0995C21.9185 20.0741 21.901 20.0384 21.8987 20.0002C21.8965 19.962 21.9096 19.9245 21.9354 19.8959C21.9611 19.8674 21.9972 19.8501 22.0358 19.8478V19.8454ZM28.6832 19.8454C28.6848 19.8454 28.6864 19.8454 28.688 19.8454C28.6929 19.8452 28.6977 19.8452 28.7026 19.8454H29.559C29.5976 19.8454 29.6346 19.8606 29.6619 19.8876C29.6892 19.9146 29.7045 19.9512 29.7045 19.9894C29.7045 20.0276 29.6892 20.0642 29.6619 20.0912C29.6346 20.1182 29.5976 20.1334 29.559 20.1334L29.2873 20.1382V21.7746C29.2826 21.8111 29.2646 21.8446 29.2367 21.869C29.2088 21.8933 29.1728 21.9067 29.1356 21.9067C29.0984 21.9067 29.0625 21.8933 29.0346 21.869C29.0067 21.8446 28.9887 21.8111 28.984 21.7746V20.1358H28.7026C28.664 20.138 28.6261 20.125 28.5972 20.0995C28.5683 20.0741 28.5508 20.0384 28.5485 20.0002C28.5463 19.962 28.5594 19.9245 28.5852 19.8959C28.6109 19.8674 28.647 19.8501 28.6856 19.8478L28.6832 19.8454ZM27.0407 19.855C27.0504 19.8541 27.0602 19.8541 27.0698 19.855H27.5308C27.7094 19.8499 27.8853 19.8984 28.0354 19.9942C28.1126 20.053 28.176 20.1276 28.2212 20.2129C28.2664 20.2983 28.2924 20.3923 28.2974 20.4885C28.308 20.5755 28.2979 20.6637 28.268 20.7461C28.2381 20.8286 28.1892 20.9031 28.1252 20.9636C28.0458 21.0444 27.9487 21.1059 27.8413 21.1435L27.7928 21.1603L28.1761 21.6402C28.2106 21.6768 28.2304 21.7246 28.2319 21.7746C28.2271 21.8513 28.1761 21.8945 28.0864 21.8945C28.0601 21.8956 28.0339 21.8902 28.0102 21.8789C27.9865 21.8676 27.966 21.8507 27.9505 21.8297L27.4968 21.2107H27.213V21.7626C27.216 21.7835 27.2141 21.8049 27.2076 21.8251C27.2012 21.8453 27.1902 21.8637 27.1755 21.8792C27.1608 21.8946 27.1429 21.9066 27.1229 21.9142C27.1029 21.9218 27.0815 21.925 27.0601 21.9233C27.0391 21.9242 27.0181 21.9205 26.9987 21.9125C26.9792 21.9046 26.9617 21.8925 26.9474 21.8773C26.9331 21.862 26.9224 21.8438 26.9159 21.824C26.9093 21.8042 26.9073 21.7832 26.9097 21.7626V20.0206C26.9072 19.9772 26.921 19.9345 26.9485 19.9006C26.973 19.8753 27.0056 19.8592 27.0407 19.855ZM17.6519 19.8598C17.6544 19.8598 17.6568 19.8598 17.6592 19.8598H18.5253C18.5642 19.8598 18.6016 19.8751 18.6291 19.9024C18.6566 19.9296 18.6721 19.9665 18.6721 20.005C18.6721 20.0435 18.6566 20.0804 18.6291 20.1076C18.6016 20.1349 18.5642 20.1502 18.5253 20.1502H18.2439V21.7914C18.2392 21.8279 18.2212 21.8614 18.1933 21.8858C18.1654 21.9101 18.1295 21.9235 18.0923 21.9235C18.055 21.9235 18.0191 21.9101 17.9912 21.8858C17.9633 21.8614 17.9453 21.8279 17.9406 21.7914V20.1502H17.6592C17.6206 20.1511 17.5832 20.1369 17.5552 20.1105C17.5272 20.0842 17.511 20.048 17.51 20.0098C17.509 19.9716 17.5234 19.9346 17.5501 19.9069C17.5767 19.8793 17.6133 19.8608 17.6519 19.8598ZM19.0663 19.8598C19.0679 19.8598 19.0695 19.8598 19.0712 19.8598C19.0918 19.8592 19.1124 19.8627 19.1317 19.8701C19.151 19.8776 19.1685 19.8889 19.1833 19.9032C19.198 19.9176 19.2097 19.9347 19.2175 19.9537C19.2253 19.9726 19.2292 19.9929 19.2289 20.0134V21.1435C19.2204 21.2705 19.2517 21.3971 19.3186 21.5058C19.3547 21.5518 19.4017 21.5881 19.4555 21.6115C19.5093 21.635 19.5681 21.6448 19.6267 21.6402C19.6847 21.6458 19.7432 21.6364 19.7964 21.6128C19.8496 21.5893 19.8956 21.5524 19.93 21.5058C19.9937 21.3968 20.0232 21.2716 20.0149 21.1459V20.011C20.0196 19.9745 20.04 19.9409 20.0679 19.9166C20.0958 19.8923 20.1317 19.8788 20.169 19.8788C20.2062 19.8788 20.2421 19.8923 20.27 19.9166C20.2979 19.9409 20.3159 19.9745 20.3206 20.011V21.0475C20.3374 21.2656 20.2902 21.4839 20.1847 21.6762C20.1229 21.7622 20.0392 21.8306 19.942 21.8744C19.8449 21.9183 19.7378 21.9359 19.6316 21.9257C19.5248 21.9344 19.4175 21.9161 19.3199 21.8724C19.2223 21.8288 19.1375 21.7612 19.0736 21.6762C18.9615 21.4861 18.9099 21.267 18.9256 21.0475V20.011C18.9255 19.9729 18.9399 19.9362 18.966 19.9081C18.9921 19.8801 19.0279 19.8629 19.0663 19.8598ZM27.2033 20.1358V20.9228H27.5187C27.5787 20.9294 27.6396 20.9237 27.6973 20.9059C27.755 20.8881 27.8084 20.8587 27.854 20.8194C27.8996 20.7802 27.9365 20.732 27.9623 20.6779C27.9881 20.6238 28.0022 20.565 28.0039 20.5053C28.0026 20.4556 27.991 20.4067 27.9697 20.3617C27.9484 20.3167 27.9179 20.2765 27.8801 20.2437C27.8374 20.206 27.7876 20.1769 27.7334 20.1584C27.6793 20.1399 27.6219 20.1322 27.5648 20.1358H27.2033ZM25.7865 20.1718L25.4565 21.2971H26.131L25.7865 20.1718ZM23.0208 22.5832C23.0475 22.5832 23.0717 22.588 23.0741 22.6096C23.079 22.6527 23.0353 22.6791 22.9722 22.7103C22.8782 22.7498 22.7986 22.8167 22.7442 22.9023C22.677 23.0216 22.6442 23.1569 22.6496 23.2934C22.6588 23.3344 22.6773 23.3728 22.7038 23.4056C22.7303 23.4385 22.764 23.4649 22.8024 23.4829C22.9099 23.533 23.0283 23.5561 23.1469 23.5501C23.3301 23.5392 23.5084 23.4876 23.6685 23.399C23.8846 23.3299 24.1143 23.3134 24.3381 23.351C24.5069 23.3527 24.6712 23.4054 24.8088 23.5021C24.867 23.5429 24.8573 23.5933 24.8355 23.5981C24.8015 23.6101 24.7651 23.5693 24.7287 23.5741C24.6116 23.5858 24.4961 23.6099 24.3842 23.6461C24.2386 23.7109 24.1731 23.7349 24.1028 23.862C24.0747 23.9161 24.0686 23.9788 24.0858 24.0372C24.1101 24.0948 24.1707 24.1332 24.1828 24.174C24.2183 24.2814 24.2707 24.3826 24.3381 24.4739C24.3606 24.4945 24.385 24.5129 24.4109 24.5291C24.6524 24.7074 24.881 24.9023 25.095 25.1121C25.1419 25.1795 25.1748 25.2553 25.1921 25.3353C25.1994 25.3641 25.1751 25.4073 25.1484 25.3953C25.1172 25.3747 25.088 25.3514 25.0611 25.3257C25.0245 25.2868 24.9809 25.2551 24.9325 25.2321C24.7973 25.1779 24.6507 25.1573 24.5055 25.1721C24.44 25.1721 24.309 25.2297 24.3842 25.2585C24.5127 25.3234 24.6228 25.4191 24.7044 25.5368C24.8869 25.7411 24.9803 26.0085 24.964 26.2806C24.964 26.295 24.9349 26.3046 24.9276 26.295C24.8646 26.1917 24.7803 26.1026 24.6802 26.0335C24.533 25.9269 24.3528 25.8743 24.1707 25.8847C24.1343 25.8871 24.0252 25.8847 24.0373 25.9183C24.1513 26.0613 24.2512 26.2148 24.3357 26.3766C24.423 26.586 24.4555 26.8137 24.4303 27.0388C24.4279 27.0508 24.3818 27.0628 24.3745 27.0508C24.3178 26.9847 24.2553 26.9237 24.1877 26.8685C24.12 26.8087 24.043 26.7601 23.9597 26.7245C23.7919 26.6863 23.6158 26.7102 23.4647 26.7917C23.3308 26.8648 23.2212 26.9748 23.1494 27.1084C23.0633 27.2595 23.0119 27.4274 22.9989 27.6003C22.9721 27.8113 23.0075 28.0254 23.1008 28.2169C23.2031 28.3975 23.3663 28.5368 23.5618 28.6105C23.8234 28.6929 24.0978 28.7286 24.3721 28.716C24.7093 28.728 25.0465 28.6776 25.3837 28.668C25.7034 28.6381 26.0253 28.6405 26.3445 28.6752C26.6029 28.726 26.8497 28.8236 27.0723 28.9632C27.2539 29.1002 27.428 29.2468 27.5939 29.4023C27.6133 29.4166 27.6569 29.3951 27.6788 29.3807C27.8381 29.2293 27.9487 29.0349 27.9966 28.8216C28.028 28.6149 27.9795 28.4042 27.8607 28.2313C27.7467 28.0274 27.5793 27.7995 27.4483 27.5835C27.2706 27.3568 27.107 27.1196 26.9582 26.8733C26.8777 26.7079 26.863 26.5186 26.917 26.343C26.9632 26.213 27.0554 26.1039 27.1766 26.0359C27.2033 26.0191 27.23 26.0503 27.2178 26.0863C27.1832 26.1717 27.1764 26.2656 27.1984 26.355C27.2393 26.4838 27.3138 26.5997 27.4143 26.6909C27.4459 26.7149 27.5284 26.6789 27.5478 26.6405C27.5914 26.5374 27.5648 26.3766 27.6036 26.271C27.6526 26.0745 27.7418 25.89 27.8656 25.7288C28.1331 25.5324 28.4271 25.3741 28.739 25.2585C28.819 25.2129 28.87 25.0066 28.9597 25.0401C29.0495 25.0713 29.001 25.2801 28.9331 25.3809C28.836 25.5296 28.722 25.6208 28.6152 25.7552C28.4695 25.9403 28.3419 26.1387 28.2343 26.3478C28.1757 26.447 28.151 26.5623 28.164 26.6765C28.1749 26.7247 28.1965 26.7699 28.2271 26.8088C28.2577 26.8478 28.2966 26.8797 28.3411 26.9021C28.3945 26.9261 28.4624 26.8781 28.5109 26.8421C28.6041 26.7748 28.6839 26.691 28.7462 26.595C28.802 26.5038 28.7705 26.3814 28.8239 26.2878C28.8384 26.2662 28.8967 26.271 28.9136 26.2878C28.972 26.3406 29.0098 26.4119 29.0204 26.4894C29.0256 26.5804 29.0174 26.6718 28.9961 26.7605C28.9888 26.7797 28.9379 26.8253 28.9209 26.8685C28.9078 26.9019 28.8915 26.934 28.8724 26.9645C28.7851 27.1156 28.6832 27.2428 28.5691 27.2668C28.5449 27.2692 28.5279 27.3172 28.5449 27.3388C28.6111 27.4633 28.7048 27.5716 28.819 27.6555C28.8758 27.6834 28.9377 27.6998 29.001 27.704C29.0643 27.7081 29.1278 27.6998 29.1878 27.6795C29.2533 27.6603 29.3042 27.6147 29.3794 27.5907C29.411 27.5811 29.3916 27.6003 29.3916 27.6315C29.3908 27.7018 29.3785 27.7715 29.3552 27.8378C29.3161 27.9208 29.2527 27.9902 29.1732 28.037C29.0496 28.106 28.9121 28.147 28.7705 28.157C28.705 28.169 28.6055 28.2169 28.6298 28.2793C28.6506 28.353 28.6852 28.4222 28.7317 28.4833C28.7822 28.5375 28.8515 28.571 28.9258 28.5769C29.0337 28.5814 29.1401 28.5511 29.229 28.4905C29.3261 28.4281 29.377 28.3129 29.4619 28.2313C29.4789 28.2169 29.525 28.2313 29.525 28.2553C29.5216 28.3876 29.4876 28.5173 29.4255 28.6344C29.3443 28.7634 29.2389 28.8758 29.115 28.9656C29.0786 28.9968 29.0349 29.0351 29.0349 29.0831C29.0537 29.1578 29.0903 29.2269 29.1417 29.2847C29.1896 29.3517 29.2617 29.3981 29.3431 29.4142C29.4232 29.4292 29.5055 29.4292 29.5857 29.4142C29.6172 29.4142 29.6099 29.4694 29.5832 29.4886C29.5054 29.5675 29.4072 29.6239 29.2994 29.6518C29.1993 29.6848 29.0923 29.6914 28.9888 29.671C28.7923 29.623 28.6638 29.551 28.4697 29.4958C28.3652 29.4563 28.2511 29.4488 28.1422 29.4742C28.038 29.5134 27.9484 29.5828 27.885 29.6734C27.8472 29.7171 27.822 29.7702 27.8122 29.8269C27.7977 29.9781 27.8729 30.1389 27.8243 30.2876C27.7756 30.4801 27.7098 30.668 27.6278 30.8491C27.5452 30.9879 27.4519 31.1203 27.3488 31.245C27.2518 31.3746 27.1232 31.4225 27.0577 31.5641C27.03 31.6162 26.9992 31.6667 26.9655 31.7153C26.8762 31.8852 26.828 32.0733 26.8248 32.2647C26.8496 32.4464 26.9205 32.619 27.031 32.7662L27.4022 33.3349C27.4285 33.3978 27.4361 33.4669 27.424 33.534C27.4215 33.5685 27.4105 33.6019 27.3919 33.6312C27.3732 33.6605 27.3476 33.6848 27.3173 33.702C26.8246 33.9762 26.4598 34.4299 26.3008 34.9665L26.2959 34.9977V35.0073C26.2868 35.0442 26.2694 35.0786 26.245 35.108C26.1209 35.2325 25.959 35.3134 25.784 35.3384C25.6506 35.3744 25.5172 35.408 25.3837 35.4487C25.3403 35.46 25.3024 35.4864 25.277 35.5231C25.2542 35.5589 25.244 35.6011 25.248 35.6432C25.2519 35.6852 25.2698 35.7249 25.2988 35.7559C25.3391 35.8046 25.3643 35.8637 25.3716 35.9262C25.3737 35.9625 25.3625 35.9982 25.3401 36.027C25.3205 36.0482 25.2976 36.066 25.2721 36.0798C25.1078 36.1724 24.9315 36.2426 24.7481 36.2885C24.6268 36.3149 24.5395 36.2837 24.5783 36.147C24.6456 35.9088 24.7249 35.6742 24.816 35.4439C24.8958 35.3087 25.0062 35.1937 25.1387 35.108C25.3024 34.9687 25.4741 34.8389 25.653 34.7193C25.7699 34.64 25.8683 34.5369 25.9417 34.417C26.084 34.1895 26.2379 33.9693 26.4027 33.7572C26.4356 33.7133 26.4589 33.6631 26.471 33.6098C26.4831 33.5565 26.4838 33.5012 26.473 33.4476C26.4572 33.3512 26.4175 33.2602 26.3574 33.1828C26.2972 33.1053 26.2186 33.0438 26.1285 33.0038C26.061 32.9736 25.9922 32.9464 25.9223 32.9222C25.6867 32.8419 25.4795 32.6961 25.3255 32.5023C25.3087 32.4767 25.2866 32.4549 25.2607 32.4383C25.2348 32.4218 25.2056 32.4109 25.1751 32.4063C25.0223 32.4111 24.9786 32.6222 24.9737 32.7374C24.9614 32.9069 24.9646 33.0772 24.9834 33.2461C24.9984 33.3024 25.0017 33.3612 24.9931 33.4188C24.9854 33.4391 24.9726 33.4571 24.9561 33.4713C24.9396 33.4856 24.9199 33.4956 24.8985 33.5004C24.4171 33.6707 23.9572 33.8953 23.5278 34.1699C23.4662 34.2153 23.4142 34.2724 23.375 34.3378L23.3337 34.4074C23.2798 34.4963 23.1965 34.5639 23.0979 34.5989C22.9993 34.6339 22.8914 34.6341 22.7927 34.5994C22.7576 34.589 22.7219 34.5802 22.686 34.573C22.6309 34.5675 22.5757 34.582 22.5307 34.6138C22.4929 34.6368 22.4592 34.666 22.4312 34.7001C22.4204 34.7138 22.4122 34.7292 22.407 34.7457V34.7601C22.4065 34.7665 22.4065 34.7729 22.407 34.7793C22.4085 34.7933 22.4117 34.807 22.4167 34.8201L22.4701 34.9641C22.482 34.9847 22.4892 35.0078 22.4909 35.0315C22.4926 35.0552 22.4889 35.0791 22.4801 35.1012C22.4712 35.1233 22.4574 35.1432 22.4397 35.1593C22.422 35.1755 22.4009 35.1875 22.3779 35.1944C22.2196 35.2577 22.0543 35.302 21.8854 35.3264C21.7883 35.3384 21.7034 35.3024 21.7277 35.1896C21.7625 34.9944 21.8195 34.8036 21.8975 34.6209C21.9079 34.5881 21.9258 34.5581 21.9498 34.5331C21.9737 34.5082 22.0032 34.489 22.0358 34.477C22.1962 34.3863 22.3424 34.2732 22.4701 34.1411C22.5813 34.0363 22.7267 33.9742 22.8801 33.9659C23.1104 33.946 23.3305 33.8629 23.5157 33.726C23.71 33.5927 23.8926 33.4434 24.0615 33.2797C24.1854 33.1211 24.2514 32.9257 24.2488 32.7253C24.2461 32.5249 24.175 32.3313 24.047 32.176L23.9985 32.092C23.9524 32.02 23.9257 31.9168 23.8869 31.8424C23.836 31.7677 23.8036 31.6823 23.7923 31.5929C23.7923 31.4297 23.8578 31.2738 23.8675 31.1106C23.8687 31.0978 23.8656 31.0849 23.8586 31.074C23.8515 31.0631 23.841 31.0549 23.8286 31.0506C23.7219 31.0109 23.61 30.9867 23.4963 30.9787C23.0452 31.0304 22.5898 31.0352 22.1377 30.9931C21.802 30.8973 21.483 30.7516 21.1915 30.5612C21.063 30.482 20.9853 30.3932 20.8543 30.3188C20.8203 30.2996 20.8179 30.3068 20.7864 30.3332C20.4646 30.5641 20.0686 30.6708 19.6728 30.6331H19.668C19.4253 30.5919 19.1867 30.5301 18.9547 30.4484C18.7776 30.3836 18.4938 30.2708 18.3239 30.4124C18.2536 30.4724 18.2706 30.5564 18.2706 30.6355C18.2929 30.8795 18.2847 31.1253 18.2463 31.3674C18.2418 31.3799 18.2401 31.3933 18.2413 31.4066C18.2426 31.4198 18.2468 31.4326 18.2536 31.4441C18.258 31.4494 18.2628 31.4542 18.2681 31.4585C18.2946 31.4788 18.3241 31.495 18.3555 31.5065L18.3797 31.5161C18.4477 31.5401 18.4598 31.5713 18.501 31.6553C18.5221 31.7024 18.5353 31.7527 18.5399 31.8041C18.5473 31.8536 18.5449 31.9042 18.5326 31.9528C18.5265 31.9843 18.5192 32.0155 18.5107 32.0464C18.4804 32.1535 18.4872 32.2675 18.5302 32.3703C18.5505 32.4218 18.586 32.4661 18.632 32.4975C18.6399 32.5013 18.648 32.5045 18.6563 32.5071C18.6642 32.5101 18.6723 32.5125 18.6806 32.5143C18.6886 32.5149 18.6968 32.5149 18.7048 32.5143H18.7291C18.7461 32.5103 18.7625 32.5038 18.7776 32.4951L18.7873 32.4903C18.8109 32.4703 18.8412 32.46 18.8722 32.4615C18.8806 32.463 18.8887 32.4654 18.8965 32.4687C18.9381 32.4776 18.9757 32.4998 19.0033 32.5319C19.0309 32.564 19.0471 32.6042 19.0493 32.6462C19.0549 32.8292 19.0167 33.0109 18.9377 33.1765C18.9304 33.1935 18.9196 33.2088 18.9062 33.2216C18.8928 33.2344 18.8769 33.2445 18.8596 33.2512C18.8422 33.2579 18.8236 33.2611 18.805 33.2606C18.7863 33.2602 18.768 33.256 18.7509 33.2485L18.7073 33.2317C18.5757 33.1623 18.46 33.0667 18.3676 32.951C18.2991 32.8768 18.2573 32.7823 18.2487 32.6822C18.2517 32.6106 18.2274 32.5404 18.1808 32.4855C18.1578 32.4677 18.1314 32.4546 18.1032 32.4471C18.0368 32.4278 17.9776 32.3893 17.9333 32.3367C17.875 32.2634 17.8336 32.1785 17.8118 32.0877C17.79 31.997 17.7884 31.9026 17.8072 31.8113C17.8824 31.2974 17.8444 30.7736 17.6956 30.2756C17.6644 30.1917 17.6661 30.0992 17.7004 30.0165L17.7393 29.9133C17.7442 29.9002 17.7498 29.8874 17.7562 29.8749C17.7662 29.8553 17.7805 29.8382 17.7982 29.8249C17.8159 29.8116 17.8364 29.8024 17.8581 29.7982C17.8813 29.7937 17.9049 29.7913 17.9285 29.791C18.2989 29.7897 18.6669 29.733 19.0202 29.623C19.0681 29.6047 19.1194 29.5966 19.1706 29.599C19.2296 29.603 19.2887 29.6046 19.3477 29.6038C19.4205 29.6038 19.4933 29.539 19.406 29.4838C19.3331 29.4191 19.265 29.3494 19.2022 29.2751C19.1901 29.2537 19.1711 29.2369 19.1482 29.2273C19.1254 29.2177 19.1 29.216 19.076 29.2223C19.0676 29.2257 19.0595 29.2297 19.0518 29.2343L19.0299 29.2463C19.0027 29.2699 18.9704 29.2871 18.9355 29.2966C18.9006 29.306 18.8639 29.3074 18.8283 29.3007C18.7928 29.294 18.7592 29.2793 18.7302 29.2579C18.7013 29.2364 18.6776 29.2086 18.6612 29.1767C18.5692 29.0252 18.4982 28.8622 18.4501 28.692C18.4093 28.4835 18.3186 28.2878 18.1857 28.121C18.1248 28.0638 18.052 28.0206 17.9723 27.9944C17.8926 27.9683 17.8081 27.9599 17.7247 27.9698C17.5926 28.0045 17.4794 28.0889 17.4093 28.205L17.2565 28.4161C17.2177 28.4623 17.1918 28.5177 17.1813 28.5769C17.1803 28.5896 17.1803 28.6025 17.1813 28.6152C17.1847 28.6415 17.1912 28.6673 17.2007 28.692C17.2272 28.7555 17.2323 28.8257 17.2153 28.8923C17.1982 28.9589 17.1599 29.0182 17.1061 29.0615L16.878 29.2415C16.8569 29.2595 16.8395 29.2815 16.827 29.3063C16.8145 29.331 16.8071 29.3579 16.8052 29.3855C16.7984 29.434 16.7886 29.482 16.7761 29.5294C16.7674 29.5647 16.7649 29.6013 16.7688 29.6374C16.7698 29.6471 16.7714 29.6567 16.7737 29.6662C16.7878 29.7053 16.8141 29.7389 16.8489 29.7622C16.86 29.7712 16.8705 29.7808 16.8804 29.791C16.892 29.8031 16.9018 29.8169 16.9096 29.8317C16.9234 29.8592 16.9281 29.8902 16.9228 29.9204C16.9176 29.9507 16.9027 29.9784 16.8804 29.9997C16.8623 30.0179 16.8428 30.0347 16.8222 30.0501C16.6821 30.1582 16.5268 30.2455 16.3613 30.3092C16.341 30.3168 16.3198 30.3217 16.2982 30.3236C16.206 30.3308 16.1769 30.2612 16.172 30.1797C16.1648 30.0741 16.1648 29.9661 16.1648 29.8581C16.1682 29.7354 16.2175 29.6183 16.303 29.5294C16.421 29.374 16.4826 29.1838 16.4777 28.9896C16.4716 28.8775 16.506 28.7669 16.5748 28.6776C16.6333 28.6142 16.6801 28.5411 16.713 28.4617C16.7364 28.4045 16.7683 28.3511 16.8077 28.3033C17.0538 28.0104 17.2815 27.7027 17.4894 27.382C17.6204 27.1756 17.8654 26.9213 18.0644 27.2068C18.116 27.2836 18.1799 27.3517 18.2536 27.4084C18.4543 27.5527 18.6642 27.6841 18.8819 27.8019C19.11 27.929 19.1464 27.7011 19.1852 27.5115V27.5043C19.2045 27.4266 19.2356 27.3521 19.2774 27.2836C19.4147 27.0663 19.5794 26.8671 19.7674 26.6909C19.8718 26.5998 20.0222 26.5086 20.1313 26.4198C20.175 26.3814 20.1871 26.3766 20.2041 26.3238C20.226 26.271 20.2624 26.2039 20.2866 26.1367C20.3109 26.0719 20.323 26.0047 20.3448 25.9543C20.3927 25.8819 20.4287 25.8026 20.4516 25.7192V25.712C20.452 25.708 20.452 25.704 20.4516 25.7V25.6832L20.4443 25.6664C20.4341 25.6422 20.4162 25.622 20.3934 25.6088C20.319 25.5641 20.2328 25.5424 20.1459 25.5464H20.1386C20.0151 25.5474 19.8931 25.5727 19.7796 25.6208C19.7211 25.6464 19.6744 25.6926 19.6486 25.7504C19.6234 25.8061 19.589 25.8572 19.5467 25.9015C19.505 25.9417 19.4499 25.9653 19.3917 25.968C19.3336 25.9706 19.2765 25.9521 19.2313 25.9159C19.1731 25.8775 19.1973 25.8127 19.2313 25.7648C19.2625 25.7269 19.2909 25.6868 19.3162 25.6448C19.3264 25.6265 19.3307 25.6056 19.3283 25.5848V25.5752L19.3235 25.5632C19.3201 25.5579 19.316 25.5531 19.3113 25.5488C19.2962 25.5369 19.2781 25.5291 19.259 25.5261C19.2399 25.5232 19.2203 25.5252 19.2022 25.532C19.1341 25.5506 19.0669 25.5723 19.0008 25.5968C18.9788 25.6087 18.9543 25.6151 18.9292 25.6156C18.9042 25.616 18.8794 25.6104 18.857 25.5994C18.8346 25.5883 18.8152 25.572 18.8006 25.5519C18.7859 25.5318 18.7764 25.5086 18.7728 25.484C18.7633 25.4407 18.7608 25.3962 18.7655 25.3521C18.767 25.3246 18.7771 25.2982 18.7945 25.2767C18.8119 25.2552 18.8357 25.2396 18.8625 25.2321C18.911 25.2177 18.9838 25.1913 18.9741 25.1313C18.9714 25.113 18.9714 25.0944 18.9741 25.0761C18.9786 25.0548 18.9886 25.0349 19.0032 25.0185C19.0245 24.9953 19.049 24.9751 19.076 24.9586C19.3443 24.7847 19.6034 24.5973 19.8524 24.3971C19.8711 24.3755 19.8971 24.3613 19.9255 24.3569C19.954 24.3525 19.9831 24.3582 20.0076 24.3731L20.0319 24.3875C20.1445 24.4455 20.2742 24.4625 20.3982 24.4355C20.4201 24.4345 20.4412 24.4271 20.4589 24.4143C20.4766 24.4015 20.4901 24.3838 20.4977 24.3635C20.4981 24.3595 20.4981 24.3555 20.4977 24.3515V24.3395L20.4928 24.3251L20.4855 24.3155C20.4628 24.2909 20.4333 24.2734 20.4006 24.2651L20.2599 24.2148C20.2158 24.1993 20.1735 24.1792 20.1338 24.1548C20.1094 24.141 20.0903 24.1196 20.0794 24.0941C20.0684 24.0685 20.0662 24.0401 20.0731 24.0132C20.1289 23.7421 20.4298 23.7397 20.6578 23.7613H20.6675C20.7827 23.7595 20.897 23.7418 21.0072 23.7085C21.1527 23.6581 21.2643 23.5477 21.4026 23.4829C21.5409 23.4181 21.6864 23.3462 21.8296 23.291C21.8733 23.2766 21.9096 23.2862 21.9485 23.2694C21.9812 23.2564 22.0103 23.2358 22.0334 23.2094C22.133 23.0667 22.2486 22.9355 22.3779 22.8183C22.556 22.7159 22.7492 22.6414 22.9504 22.5976C22.9739 22.5893 22.9984 22.5845 23.0232 22.5832H23.0208ZM21.9897 23.9196C21.9009 23.919 21.8133 23.9405 21.735 23.982C21.7131 23.994 21.6986 24.0204 21.7156 24.0396C21.7592 24.09 21.8344 24.1116 21.8854 24.1596C21.9202 24.191 21.949 24.2284 21.9703 24.2699C21.9921 24.3155 22.0285 24.3659 22.0504 24.4139C22.0917 24.5104 22.1282 24.6089 22.1595 24.709C22.2147 24.8724 22.2553 25.0402 22.2808 25.2105C22.3051 25.3473 22.2978 25.4912 22.3051 25.6304V25.8247C22.3027 25.8799 22.3027 25.9375 22.2978 25.9927C22.2912 26.0709 22.2879 26.1494 22.2881 26.2278V26.4198C22.293 26.5878 22.3196 26.7077 22.3949 26.7077C22.4655 26.7091 22.5354 26.6934 22.5986 26.6621C22.6608 26.6253 22.7124 26.5733 22.7485 26.5111C22.7846 26.449 22.804 26.3787 22.8049 26.307C22.869 25.8484 22.8665 25.383 22.7976 24.925C22.7861 24.7569 22.7396 24.5931 22.6612 24.4436C22.5827 24.2942 22.4738 24.1623 22.3415 24.0564C22.2458 23.9702 22.1191 23.9216 21.9897 23.9196ZM31.5969 24.3059H44.1565C44.1153 26.2854 44.074 28.145 44.0352 29.7358H31.5896L31.5993 25.2681L31.5969 24.3059ZM31.5823 30.41H44.0109C43.9344 32.7914 43.4885 35.1471 42.6887 37.3947C41.7361 40.0299 40.4654 42.5419 38.9041 44.876C37.2751 47.2801 35.3015 49.4373 33.0452 51.28C32.164 52.0181 31.2344 52.6978 30.2625 53.3147C28.7408 54.2309 27.1512 55.0322 25.5075 55.7117C24.964 55.942 24.4934 56.158 24.0615 56.3043C23.5933 56.4603 23.193 56.6043 22.9116 56.6786V56.4027L22.9189 38.8991C23.1751 38.892 23.4309 38.8736 23.6855 38.8439C23.6976 38.8799 23.7243 38.9807 23.7607 39.0838C23.8155 39.1838 23.8913 39.271 23.9829 39.3397C24.0745 39.4084 24.1799 39.457 24.292 39.4821C24.4277 39.5094 24.5682 39.4999 24.6989 39.4547C24.8296 39.4095 24.9455 39.3303 25.0344 39.2254C25.1605 39.3364 25.3155 39.4102 25.4818 39.4386C25.6482 39.467 25.8193 39.4489 25.9757 39.3862C26.0973 39.3544 26.2049 39.2838 26.2817 39.1853C26.3584 39.0867 26.4001 38.9659 26.4003 38.8415C26.4158 38.6711 26.3883 38.4996 26.3202 38.3424L26.2329 38.1841C26.8687 37.9217 27.4739 37.5918 28.0378 37.2003L28.0864 37.1859C28.9913 36.9604 32.6279 35.6719 34.8575 35.6431C36.2329 35.6123 37.5928 35.9347 38.8046 36.5789C39.4247 36.9372 39.9832 37.3907 40.4592 37.9225C40.4738 37.9441 40.4907 37.9897 40.549 37.9993C40.5665 37.9997 40.5837 37.9949 40.5984 37.9855C40.6131 37.9761 40.6246 37.9625 40.6315 37.9465C40.7914 37.5541 40.857 37.1302 40.8231 36.7084C40.7746 36.0318 40.0953 35.5423 39.8939 35.3408C39.8867 35.3336 39.8697 35.2904 39.9425 35.2424C40.0203 35.1661 40.1056 35.0978 40.1972 35.0384C40.5869 34.7323 41.0636 34.5545 41.5606 34.5298C41.6334 34.537 41.6092 34.4338 41.5897 34.3474C41.449 33.7476 40.5829 33.3589 39.6732 33.498C39.3707 33.5594 39.0836 33.6794 38.8283 33.8511C38.5731 34.0228 38.3547 34.2429 38.186 34.4986C38.169 34.525 38.0841 34.5634 38.0501 34.5298C37.7577 34.4249 37.4587 34.3391 37.1549 34.273C37.0458 34.249 37.104 34.1675 37.1088 34.1531C37.289 33.8313 37.5413 33.5547 37.8464 33.3445C38.1955 33.0713 38.607 32.8868 39.0448 32.807C39.0982 32.807 39.0982 32.735 39.0836 32.711C38.9975 32.5299 38.8708 32.3706 38.7132 32.245C38.5556 32.1195 38.3711 32.031 38.1739 31.9864C37.8547 31.8849 37.5153 31.8625 37.1854 31.9211C36.8554 31.9796 36.5451 32.1174 36.2816 32.3223C35.7689 32.7439 35.3934 33.3056 35.202 33.9371C35.168 33.9851 35.1583 34.0235 35.1146 34.0139C34.8744 33.9659 34.2776 33.9971 34.2243 33.9611C34.1879 33.9443 34.1952 33.8891 34.2024 33.8531C34.3038 33.5102 34.4888 33.1971 34.741 32.9414C34.9683 32.6389 35.2732 32.402 35.6241 32.2551C35.6451 32.2456 35.6632 32.2308 35.6767 32.2122C35.6902 32.1937 35.6986 32.1719 35.7011 32.1492C35.7035 32.1264 35.6999 32.1035 35.6907 32.0825C35.6815 32.0615 35.6669 32.0433 35.6484 32.0296C35.1577 31.7782 34.5939 31.7037 34.0538 31.8189C33.5136 31.9341 33.0309 32.2317 32.6886 32.6606C32.3464 33.1706 32.0968 33.7358 31.9511 34.3306C31.9462 34.3522 31.9098 34.417 31.8637 34.417L30.6313 34.6857L30.4299 34.7313L30.3766 34.7865C31.127 33.5962 31.5432 32.2297 31.5823 30.8275V30.41ZM1.378 30.614H13.9692V30.8299C13.9924 32.6987 14.716 34.4924 15.9998 35.8638H2.20528C1.7278 34.1508 1.45186 32.3894 1.378 30.614ZM2.38481 36.4757H16.6087C16.6969 36.5583 16.7875 36.6383 16.8804 36.7156C18.3695 37.9522 20.2079 38.7046 22.145 38.8703V41.7736H4.6289C3.87581 40.3606 3.22717 38.8955 2.68806 37.3899C2.58108 37.0879 2.47997 36.7839 2.38481 36.4781V36.4757ZM28.0621 37.1715L28.0378 37.2003H28.033L28.0281 37.1955C28.0403 37.1875 28.0524 37.1795 28.0645 37.1715H28.0621ZM32.2786 37.6154C31.8404 37.616 31.4122 37.7455 31.0486 37.9873C30.6361 38.2098 30.3038 38.5536 30.0976 38.9711C29.8648 39.5667 29.7242 40.1935 29.6803 40.8306C29.6718 40.8502 29.6592 40.8679 29.6433 40.8824C29.6274 40.8968 29.6086 40.9078 29.5881 40.9146C29.3132 40.9681 29.0418 41.0378 28.7754 41.1233C28.7621 41.1222 28.7496 41.1169 28.7396 41.1083C28.7296 41.0996 28.7226 41.0881 28.7196 41.0753C28.6339 40.4698 28.7624 39.8535 29.0835 39.331C29.2167 39.0887 29.3963 38.8744 29.6123 38.6999C29.6281 38.6899 29.6403 38.6752 29.6473 38.658C29.6542 38.6407 29.6554 38.6217 29.6509 38.6037C29.6463 38.5857 29.6362 38.5696 29.6219 38.5576C29.6076 38.5456 29.5898 38.5383 29.5711 38.5368C29.0309 38.446 28.4755 38.5427 27.999 38.8103C27.7016 38.9727 27.4472 39.2023 27.2566 39.4804C27.0661 39.7586 26.9447 40.0773 26.9024 40.4107C26.8453 40.8879 26.8799 41.3715 27.0043 41.8359C27.0043 41.8503 27.0189 41.9007 26.9655 41.9103C26.7811 41.9991 26.2814 42.2582 26.1043 42.3422C26.0921 42.347 26.0582 42.3542 26.0509 42.3278C26.0054 42.1492 25.9245 41.9813 25.8129 41.8339C25.7013 41.6864 25.5612 41.5623 25.4007 41.4688C25.2275 41.3986 25.0408 41.3669 24.8538 41.376C24.6668 41.3852 24.4841 41.4349 24.3187 41.5216C24.0952 41.6469 23.9132 41.8336 23.7947 42.0591C23.7117 42.2484 23.697 42.4602 23.7531 42.659C23.8092 42.8577 23.9326 43.0314 24.1028 43.1508C24.1173 43.1652 24.144 43.1988 24.1028 43.2108C23.8844 43.3284 23.8796 43.3548 23.7146 43.5971C23.6314 43.7707 23.5991 43.964 23.6214 44.1548C23.6437 44.3457 23.7197 44.5266 23.8408 44.6768C23.9316 44.8099 24.0505 44.9219 24.1891 45.0054C24.3278 45.0888 24.4831 45.1417 24.6443 45.1604C24.8055 45.179 24.9689 45.1631 25.1233 45.1136C25.2777 45.0641 25.4195 44.9822 25.539 44.8736C25.5487 44.8664 25.5827 44.8856 25.5997 44.9216C25.6909 45.0631 25.8086 45.1861 25.9466 45.2839C26.115 45.3779 26.3051 45.4272 26.4985 45.4272C26.6919 45.4272 26.882 45.3779 27.0504 45.2839C27.2267 45.1877 27.3695 45.0413 27.4604 44.8637C27.5512 44.6861 27.5859 44.4855 27.5599 44.2881C27.5564 44.0519 27.4597 43.8263 27.2906 43.6595C27.2591 43.6211 27.2906 43.6019 27.3731 43.5491C28.8392 42.7184 30.4538 42.1758 32.1282 41.9511C32.9948 41.8191 33.8781 41.8369 34.7386 42.0039C35.2998 42.1309 35.8228 42.3874 36.2646 42.7525C36.6248 43.0405 36.9548 43.3636 37.2495 43.7171C37.3484 43.7331 37.4498 43.7117 37.5334 43.6571C37.6232 43.4632 37.6725 43.2534 37.6783 43.0403C37.6842 42.8271 37.6464 42.615 37.5674 42.4166C37.3666 41.8823 37.0484 41.3988 36.6358 41.001C36.6285 40.9962 36.6285 40.9698 36.6285 40.953C36.6188 40.881 36.6649 40.845 36.7546 40.7634C37.1368 40.41 37.6075 40.164 38.1181 40.0508C38.1836 40.046 38.2103 39.998 38.1666 39.9236C37.982 39.5906 37.682 39.3348 37.3217 39.2034C36.9615 39.072 36.5653 39.0739 36.2063 39.2086C35.7337 39.4056 35.3422 39.7583 35.1025 40.2068C35.0879 40.2331 35.0491 40.3267 35.0127 40.2979C34.7944 40.2787 34.4256 40.2211 34.2097 40.202C34.1102 40.1972 34.1491 40.1084 34.1515 40.094C34.2412 39.806 34.4031 39.5452 34.6221 39.3358C34.9157 39.0014 35.2847 38.74 35.6993 38.5728C35.7076 38.5718 35.7156 38.5689 35.7224 38.5642C35.7293 38.5595 35.7349 38.5532 35.7388 38.5458C35.7426 38.5385 35.7446 38.5303 35.7444 38.522C35.7443 38.5137 35.7422 38.5056 35.7381 38.4984C35.6006 38.3326 35.4287 38.1977 35.2342 38.103C35.0396 38.0082 34.8268 37.9557 34.61 37.9489C34.3339 37.9346 34.0579 37.9781 33.8 38.0765C33.542 38.1749 33.308 38.326 33.1131 38.52C32.6489 39.0057 32.3613 39.6303 32.2956 40.2955C32.2737 40.3507 32.247 40.3795 32.2058 40.3795C31.9827 40.415 31.7573 40.4351 31.5313 40.4395C31.495 40.4299 31.4974 40.3915 31.4974 40.3531C31.5015 40.014 31.5853 39.6805 31.7424 39.379C32.0501 38.8019 32.5115 38.319 33.0767 37.9825C33.1641 37.9225 33.1689 37.8002 33.1398 37.7858C32.8671 37.6726 32.5743 37.6146 32.2786 37.6154ZM4.99766 42.4502H22.1474V47.7049H8.65129C7.86277 46.8088 7.13498 45.8622 6.4727 44.8712C5.95107 44.0811 5.45827 43.2728 4.99523 42.4478L4.99766 42.4502ZM29.4425 45.2719C29.2102 45.2628 28.9802 45.3203 28.7802 45.4374C28.2348 45.7211 27.8218 46.2027 27.6278 46.7811C27.5142 47.2322 27.5243 47.7052 27.6569 48.1512C27.6642 48.168 27.6861 48.2088 27.6521 48.2231C27.4629 48.2951 27.3222 48.3791 27.1353 48.4535C27.1256 48.4535 27.0771 48.4655 27.0674 48.4415C26.9101 48.1625 26.846 47.8414 26.8843 47.5242C26.9227 47.2071 27.0615 46.91 27.2809 46.6755C27.3222 46.6395 27.3464 46.5916 27.2615 46.5628C27.0247 46.5268 26.7826 46.5503 26.5575 46.6313C26.3323 46.7122 26.1314 46.8479 25.9733 47.0259C25.7915 47.2425 25.6697 47.5021 25.62 47.7793C25.5702 48.0565 25.5941 48.3418 25.6894 48.6071C25.7369 48.8266 25.8179 49.0378 25.9296 49.2333C25.9369 49.2453 26.0024 49.2837 25.9636 49.3005L25.5997 49.5764C25.5924 49.5836 25.5657 49.5956 25.5536 49.5764C25.4804 49.4399 25.3805 49.3191 25.2597 49.221C25.139 49.123 24.9997 49.0497 24.85 49.0054C24.7142 48.9735 24.5725 48.9762 24.438 49.0131C24.3036 49.0501 24.1807 49.12 24.081 49.2165C23.9731 49.3217 23.8947 49.4527 23.8533 49.5968C23.812 49.741 23.8091 49.8932 23.8451 50.0388C23.881 50.1843 23.9545 50.3181 24.0583 50.4272C24.1622 50.5362 24.2929 50.6168 24.4376 50.6609C24.4546 50.6681 24.4788 50.6897 24.4497 50.7089C24.2562 50.8385 24.0979 51.0132 23.9888 51.2176C23.9231 51.3821 23.9076 51.5621 23.9442 51.7353C23.9809 51.9084 24.0681 52.0671 24.195 52.1918C24.2903 52.2745 24.4023 52.3363 24.5236 52.3731C24.6449 52.4099 24.7727 52.4209 24.8985 52.4053C25.0866 52.3444 25.2603 52.2464 25.4092 52.1173C25.558 51.9883 25.6789 51.8308 25.7646 51.6543C25.7695 51.6471 25.8156 51.6135 25.8398 51.6399C25.9961 51.8633 26.2206 52.0314 26.4803 52.1198C26.6131 52.1655 26.7558 52.1751 26.8937 52.1477C27.0315 52.1202 27.1594 52.0567 27.2639 51.9638C27.4065 51.8532 27.5095 51.7004 27.558 51.5277C27.6064 51.355 27.5978 51.1715 27.5332 51.0041C27.416 50.7944 27.2486 50.6165 27.0456 50.4858C27.014 50.4618 27.0383 50.4018 27.1014 50.3538C28.0841 49.5723 29.2569 49.0594 30.5027 48.8662C31.3532 48.7546 32.218 48.8932 32.9894 49.2645C33.2908 49.4394 33.5659 49.655 33.807 49.9051C33.8385 49.9219 33.9283 49.9531 33.9598 49.9243C34.1426 49.7582 34.2534 49.5287 34.2692 49.2838C34.285 49.0388 34.2046 48.7972 34.0447 48.6095C33.9071 48.4453 33.737 48.3106 33.545 48.2136C33.537 48.2028 33.5312 48.1905 33.528 48.1776C33.6782 47.8023 33.931 47.4758 34.2582 47.2346C34.4822 47.0925 34.7224 46.9774 34.9739 46.8915C35.0273 46.8771 35.0176 46.8435 34.9909 46.7787C34.6804 46.0757 33.4504 46.0493 32.8705 46.4188C32.5164 46.6629 32.2282 46.9891 32.0311 47.369C32.019 47.393 32.002 47.4649 31.9705 47.4433L31.4537 47.2898C31.444 47.2898 31.444 47.2322 31.4489 47.2226C31.6201 46.8934 31.8587 46.6029 32.1493 46.3695C32.44 46.1362 32.7764 45.965 33.1374 45.8669C33.1738 45.8525 33.1617 45.819 33.1544 45.7998C32.8875 45.1567 31.5508 45.2119 30.8982 45.6222C30.2917 46.02 29.8633 46.6335 29.7021 47.3354C29.6948 47.3834 29.7167 47.4241 29.6851 47.4313C29.5038 47.4928 29.317 47.537 29.1271 47.5633C29.113 47.5622 29.0997 47.5559 29.0899 47.5457C29.08 47.5356 29.0743 47.5222 29.0738 47.5081C29.0259 47.1855 29.0828 46.8562 29.2363 46.5676C29.454 46.2087 29.7183 45.8796 30.0223 45.5886C30.0324 45.5785 30.0402 45.5664 30.0454 45.5531C30.0505 45.5398 30.0528 45.5257 30.0521 45.5115C30.0514 45.4973 30.0477 45.4834 30.0414 45.4706C30.035 45.4579 30.0261 45.4466 30.0151 45.4374C29.8415 45.3349 29.6446 45.2795 29.4425 45.2719ZM22.1498 48.3815V56.5803C21.9121 56.5035 21.6306 56.4027 21.3201 56.2995C20.8883 56.1556 20.4152 55.9372 19.8718 55.7069C18.2279 55.0266 16.6384 54.2245 15.1167 53.3075C14.145 52.6913 13.2154 52.0124 12.334 51.2752C11.245 50.3807 10.2189 49.4139 9.26265 48.3815H22.145H22.1498Z" fill="white"/>
</svg>
