<svg width="166" height="26" viewBox="0 0 166 26" fill="none" xmlns="http://www.w3.org/2000/svg">
<path d="M137.068 1.48687L137.386 19.9157H137.227L131.832 1.49371H122.958V24.6973H128.823L128.505 5.64601H128.664L134.446 24.6973H142.933V1.49371L137.068 1.48687ZM25.3634 1.48687L20.9298 24.9368H27.3485L30.5993 3.60748H30.7584L33.9332 24.9368H40.2688L35.9113 1.49371L25.3634 1.48687ZM61.1987 1.48687L58.266 19.3684H58.1069L55.1743 1.49371H45.5117L45.0344 24.9368H50.9827L51.1418 3.84691H51.2179L55.1812 24.9368H61.2056L65.1688 3.84691H65.3279L65.487 24.9368H71.4353L70.882 1.49371L61.1987 1.48687ZM10.9422 18.2739C11.1225 18.8316 11.1487 19.4267 11.0183 19.9978C10.8592 20.7776 10.3058 21.5643 8.72192 21.5643C7.21408 21.5643 6.34258 20.7024 6.34258 19.4437V17.1726H0V18.9785C0 24.2322 4.19842 25.7987 8.64583 25.7987C12.9203 25.7987 16.4893 24.3074 17.0427 20.463C17.3608 18.4244 17.1257 17.0973 17.0427 16.6253C15.936 11.6863 6.89592 10.2703 6.25958 7.5272C6.18043 7.11359 6.18043 6.68896 6.25958 6.27535C6.41867 5.48867 6.97892 4.70199 8.40375 4.70199C9.82858 4.70199 10.6171 5.57077 10.6171 6.82261V8.23179H16.5654V6.59003C16.5654 1.49371 11.8898 0.707031 8.56283 0.707031C4.3575 0.707031 0.8715 2.11621 0.235167 5.88544C0.0270069 6.9229 0.0553616 7.99321 0.318167 9.01847C1.26575 13.8754 9.7525 15.2914 10.9422 18.2671M88.0768 18.2671C88.312 18.8143 88.229 19.5258 88.1529 19.9978C87.9938 20.7776 87.4405 21.5643 85.8566 21.5643C84.3487 21.5643 83.4772 20.7024 83.4772 19.4437V17.1726H77.1347V18.9785C77.1347 24.1501 81.257 25.7166 85.6975 25.7166C89.9789 25.7166 93.4649 24.3074 94.0182 20.3877C94.3364 18.3492 94.1012 17.0973 94.0182 16.5432C93.0707 11.6863 84.1067 10.1951 83.4772 7.5272C83.3974 7.11365 83.3974 6.6889 83.4772 6.27535C83.6363 5.48867 84.1897 4.70199 85.6214 4.70199C86.9632 4.70199 87.8347 5.57077 87.8347 6.82261V8.23179H93.7001V6.59003C93.7001 1.49371 89.1005 0.707031 85.7736 0.707031C81.5752 0.707031 78.1652 2.04097 77.5289 5.88544C77.3698 6.9047 77.3698 7.84187 77.6119 9.01847C78.5595 13.8754 86.8802 15.2093 88.0768 18.2671ZM108.052 21.407C109.712 21.407 110.196 20.3125 110.349 19.6831C110.432 19.4437 110.431 19.0538 110.431 18.8212V1.48687H116.449V18.3423C116.449 18.8143 116.449 19.6763 116.38 19.9157C115.979 24.3006 112.493 25.7098 108.128 25.7098C103.771 25.7098 100.285 24.3006 99.8836 19.9089C99.8836 19.6763 99.8075 18.8143 99.8075 18.3423V1.48687H105.825V18.8143C105.825 19.129 105.825 19.4368 105.908 19.6763C105.908 20.2988 106.392 21.4001 108.052 21.4001M157.52 21.1675C159.263 21.1675 159.816 20.073 159.976 19.4369C160.052 19.2043 160.052 18.8143 160.052 18.5749V15.2025H157.596V11.7548H166V18.0277C166 18.4997 166 18.8143 165.924 19.601C165.523 23.9107 161.795 25.3951 157.596 25.3951C153.398 25.3951 149.67 23.9107 149.275 19.5942C149.193 18.8143 149.192 18.4997 149.192 18.0277V8.1497C149.192 7.75978 149.275 6.97311 149.275 6.57635C149.829 2.19146 153.398 0.782277 157.596 0.782277C161.795 0.782277 165.447 2.19146 165.917 6.58318C166 7.28777 166 8.1497 166 8.1497V8.93639H160.052V7.60245C160.052 7.60245 160.052 7.05519 159.976 6.74052C159.893 6.19327 159.422 5.01666 157.596 5.01666C155.853 5.01666 155.383 6.11118 155.217 6.74052C155.141 7.04835 155.141 7.44511 155.141 7.83503V18.5749C155.141 18.8896 155.141 19.2043 155.217 19.4369C155.217 20.0662 155.853 21.1675 157.52 21.1675Z" fill="white"/>
</svg>
