<svg width="17" height="16" viewBox="0 0 17 16" fill="none" xmlns="http://www.w3.org/2000/svg">
<path d="M13.785 6.53025L8.78499 11.5302C8.71531 11.6002 8.63252 11.6556 8.54136 11.6935C8.45019 11.7314 8.35245 11.7508 8.25374 11.7508C8.15503 11.7508 8.05729 11.7314 7.96613 11.6935C7.87496 11.6556 7.79217 11.6002 7.72249 11.5302L2.72249 6.53025C2.5816 6.38935 2.50244 6.19825 2.50244 5.999C2.50244 5.79974 2.5816 5.60864 2.72249 5.46775C2.86339 5.32685 3.05449 5.2477 3.25374 5.2477C3.453 5.2477 3.6441 5.32685 3.78499 5.46775L8.25437 9.93712L12.7237 5.46712C12.8646 5.32623 13.0557 5.24707 13.255 5.24707C13.4542 5.24707 13.6453 5.32623 13.7862 5.46712C13.9271 5.60802 14.0063 5.79911 14.0063 5.99837C14.0063 6.19763 13.9271 6.38873 13.7862 6.52962L13.785 6.53025Z" fill="black"/>
</svg>
