<svg width="197" height="24" viewBox="0 0 197 24" fill="none" xmlns="http://www.w3.org/2000/svg">
<path d="M5.31615 0.613281H9.54181V14.9238C9.54181 15.1065 9.52477 15.4465 9.49069 15.9438C9.45661 16.4412 9.35438 17.0044 9.184 17.6337C9.0136 18.263 8.7353 18.9227 8.34908 19.6128C7.96287 20.303 7.41762 20.9322 6.71335 21.5006C6.00907 22.069 5.11168 22.5358 4.02119 22.9012C2.9307 23.2666 1.5903 23.4493 0 23.4493V19.7346C1.3404 19.7346 2.36842 19.5113 3.08405 19.0648C3.79969 18.6182 4.31653 18.1057 4.63459 17.5271C4.95265 16.9486 5.1344 16.3955 5.17984 15.8677C5.22527 15.34 5.25935 14.9847 5.28207 14.802L5.31615 0.613281Z" fill="black"/>
<path d="M24.9452 0.582031L37.7585 23.4485H32.5787L24.9452 9.07702L17.3459 23.4485H12.166L24.9452 0.582031Z" fill="black"/>
<path d="M68.2582 0.521484V23.4793L63.9985 20.4954V8.5902L55.4108 14.558L46.8573 8.5902V20.4954L42.5635 23.4793V0.521484L55.4108 9.47319L68.2582 0.521484Z" fill="black"/>
<path d="M92.8624 9.93037C93.0441 9.95067 93.3565 9.99127 93.7995 10.0522C94.2425 10.1131 94.7423 10.2298 95.2989 10.4023C95.8555 10.5749 96.4292 10.8032 97.0198 11.0874C97.6105 11.3716 98.1444 11.7623 98.6215 12.2596C99.0986 12.757 99.4962 13.3608 99.8142 14.0713C100.132 14.7818 100.291 15.6343 100.291 16.6289C100.291 16.6695 100.274 16.8674 100.24 17.2227C100.206 17.5779 100.098 18.0092 99.9165 18.5167C99.7347 19.0242 99.4621 19.5621 99.0986 20.1304C98.7351 20.6988 98.2126 21.2317 97.531 21.729C96.8495 22.2263 95.9918 22.6373 94.9581 22.9621C93.9245 23.2869 92.6579 23.4493 91.1585 23.4493C89.7726 23.4493 88.4606 23.1905 87.2225 22.6729C85.9843 22.1552 84.9222 21.4397 84.0362 20.5263L87.5121 18.1209C87.5121 18.1412 87.5973 18.2325 87.7677 18.3949C87.9381 18.5573 88.188 18.7298 88.5174 18.9125C88.8468 19.0952 89.2672 19.2627 89.7783 19.4149C90.2895 19.5672 90.8972 19.6433 91.6015 19.6433C92.8964 19.6433 93.9074 19.3439 94.6344 18.7451C95.3614 18.1462 95.7249 17.4409 95.7249 16.6289C95.7249 16.0403 95.5886 15.5582 95.316 15.1826C95.0434 14.8071 94.6742 14.5026 94.2084 14.2692C93.7427 14.0358 93.2088 13.8531 92.6068 13.7211C92.0047 13.5892 91.3629 13.4623 90.6814 13.3405C90.4996 13.3202 90.1986 13.2695 89.7783 13.1883C89.358 13.1071 88.8923 12.9752 88.3811 12.7925C87.87 12.6098 87.3361 12.3713 86.7795 12.0769C86.2229 11.7826 85.723 11.4071 85.28 10.9504C84.837 10.4936 84.4678 9.94559 84.1725 9.30618C83.8772 8.66677 83.7295 7.91065 83.7295 7.0378C83.7295 6.99721 83.7465 6.80945 83.7806 6.47452C83.8147 6.13959 83.9169 5.73362 84.0873 5.2566C84.2577 4.77958 84.5303 4.26704 84.9052 3.71898C85.28 3.17091 85.8082 2.66852 86.4898 2.2118C87.1714 1.75508 88.029 1.37448 89.0627 1.07C90.0964 0.765526 91.3629 0.613281 92.8624 0.613281C94.2482 0.613281 95.5659 0.877164 96.8154 1.40493C98.0649 1.9327 99.1327 2.6533 100.019 3.56674L96.5428 5.97213C96.2929 5.58646 95.9407 5.28705 95.4864 5.07391C95.032 4.86077 94.5776 4.70346 94.1232 4.60197C93.578 4.50047 92.9987 4.43958 92.3853 4.41928C91.0903 4.41928 90.0793 4.64764 89.3523 5.10436C88.6253 5.56108 88.2618 6.20556 88.2618 7.0378C88.2618 7.62647 88.3754 8.08826 88.6026 8.42319C88.8298 8.75811 89.1422 9.01693 89.5398 9.19962C89.9373 9.38231 90.4201 9.51932 90.9881 9.61066C91.556 9.70201 92.1808 9.80858 92.8624 9.93037Z" fill="black"/>
<path d="M120.602 0.582031V4.38803H112.082V23.4485H107.789V0.582031H120.602Z" fill="black"/>
<path d="M134.949 0.613288C136.653 0.613288 138.271 0.907621 139.805 1.49628C141.338 2.08495 142.696 2.89181 143.877 3.91689C145.058 4.94198 145.996 6.14975 146.688 7.54021C147.381 8.93067 147.728 10.4277 147.728 12.0313C147.728 13.5537 147.398 15 146.74 16.3701C146.081 17.7403 145.178 18.9531 144.03 20.0087C142.883 21.0642 141.531 21.9015 139.975 22.5206C138.419 23.1397 136.743 23.4493 134.949 23.4493C133.245 23.4493 131.62 23.1549 130.075 22.5663C128.531 21.9776 127.173 21.1657 126.003 20.1305C124.833 19.0952 123.902 17.8824 123.209 16.4919C122.516 15.1015 122.169 13.6146 122.169 12.0313C122.169 10.4886 122.499 9.03216 123.158 7.662C123.817 6.29184 124.72 5.08914 125.867 4.0539C127.014 3.01867 128.366 2.19658 129.922 1.58762C131.478 0.978656 133.154 0.653885 134.949 0.613288ZM134.949 19.6433C136.062 19.6433 137.135 19.4454 138.169 19.0495C139.203 18.6537 140.111 18.1107 140.895 17.4206C141.679 16.7304 142.304 15.9236 142.77 15C143.235 14.0764 143.468 13.0868 143.468 12.0313C143.468 11.0164 143.247 10.0471 142.804 9.12351C142.361 8.19992 141.753 7.38797 140.98 6.68767C140.208 5.98736 139.305 5.42915 138.271 5.01303C137.238 4.59691 136.13 4.38884 134.949 4.38884C133.813 4.38884 132.728 4.58675 131.694 4.98258C130.66 5.3784 129.752 5.92139 128.968 6.61154C128.184 7.3017 127.559 8.11365 127.094 9.04739C126.628 9.98112 126.395 10.9758 126.395 12.0313C126.395 13.0665 126.617 14.0358 127.06 14.9391C127.503 15.8424 128.11 16.6391 128.883 17.3292C129.655 18.0194 130.558 18.5675 131.592 18.9734C132.626 19.3794 133.745 19.6027 134.949 19.6433Z" fill="black"/>
<path d="M173.423 23.4493H168.686L163.029 14.1322H153.555V10.3566H165.857C166.38 10.3363 166.846 10.2145 167.254 9.99126C167.618 9.80857 167.947 9.51424 168.243 9.10827C168.538 8.7023 168.686 8.12378 168.686 7.37273C168.686 6.64198 168.538 6.07362 168.243 5.66765C167.947 5.26167 167.618 4.96735 167.254 4.78466C166.846 4.56137 166.38 4.43958 165.857 4.41928H153.555V0.613281H165.857C167.175 0.674178 168.356 0.958359 169.401 1.46583C169.833 1.68911 170.265 1.96314 170.696 2.28792C171.128 2.6127 171.509 3.00852 171.838 3.47539C172.167 3.94226 172.434 4.4954 172.639 5.13481C172.843 5.77422 172.945 6.52019 172.945 7.37273C172.945 8.75304 172.696 9.8847 172.196 10.7677C171.696 11.6507 171.134 12.3408 170.509 12.8381C169.884 13.3355 169.293 13.6755 168.737 13.8582C168.18 14.0408 167.845 14.1322 167.732 14.1322L173.423 23.4493Z" fill="black"/>
<path d="M179.182 23.4493V19.6433H196.255V23.4493H179.182ZM194.346 10.1131V13.9191H179.182V10.1131H194.346ZM179.182 0.613281H196.255V4.41929H179.182V0.613281Z" fill="black"/>
</svg>
