<svg width="25" height="24" viewBox="0 0 25 24" fill="none" xmlns="http://www.w3.org/2000/svg">
<path d="M22.0502 20.2044L17.598 15.7504C18.9329 14.0108 19.5562 11.8286 19.3413 9.64643C19.1264 7.46426 18.0895 5.44552 16.441 3.99972C14.7924 2.55393 12.6557 1.78935 10.4641 1.86107C8.27256 1.9328 6.19035 2.83546 4.63985 4.38595C3.08936 5.93644 2.1867 8.01865 2.11498 10.2102C2.04325 12.4018 2.80784 14.5385 4.25363 16.1871C5.69942 17.8356 7.71816 18.8725 9.90034 19.0874C12.0825 19.3023 14.2647 18.679 16.0043 17.3441L20.4602 21.801C20.5648 21.9056 20.6891 21.9886 20.8258 22.0453C20.9625 22.1019 21.1091 22.1311 21.2571 22.1311C21.4051 22.1311 21.5516 22.1019 21.6883 22.0453C21.8251 21.9886 21.9493 21.9056 22.054 21.801C22.1586 21.6963 22.2416 21.5721 22.2982 21.4354C22.3549 21.2986 22.384 21.1521 22.384 21.0041C22.384 20.8561 22.3549 20.7096 22.2982 20.5728C22.2416 20.4361 22.1586 20.3119 22.054 20.2072L22.0502 20.2044ZM4.37927 10.5004C4.37927 9.2395 4.75315 8.00696 5.45365 6.9586C6.15414 5.91024 7.14978 5.09314 8.31466 4.61063C9.47954 4.12812 10.7613 4.00187 11.998 4.24785C13.2346 4.49383 14.3705 5.10099 15.2621 5.99255C16.1536 6.88411 16.7608 8.02003 17.0068 9.25666C17.2528 10.4933 17.1265 11.7751 16.644 12.94C16.1615 14.1048 15.3444 15.1005 14.296 15.801C13.2477 16.5015 12.0151 16.8754 10.7543 16.8754C9.06404 16.8736 7.44355 16.2014 6.24838 15.0062C5.05321 13.8111 4.381 12.1906 4.37927 10.5004Z" fill="black" fill-opacity="0.4"/>
</svg>
