<svg width="24" height="24" viewBox="0 0 24 24" fill="none" xmlns="http://www.w3.org/2000/svg">
<path d="M21.7961 20.2044L17.3439 15.7504C18.6788 14.0108 19.302 11.8286 19.0871 9.64643C18.8723 7.46426 17.8354 5.44552 16.1868 3.99972C14.5383 2.55393 12.4015 1.78935 10.21 1.86107C8.01841 1.9328 5.9362 2.83546 4.3857 4.38595C2.83521 5.93644 1.93255 8.01865 1.86083 10.2102C1.7891 12.4018 2.55369 14.5385 3.99948 16.1871C5.44527 17.8356 7.46401 18.8725 9.64618 19.0874C11.8284 19.3023 14.0106 18.679 15.7501 17.3441L20.2061 21.801C20.3107 21.9056 20.4349 21.9886 20.5717 22.0453C20.7084 22.1019 20.8549 22.1311 21.0029 22.1311C21.1509 22.1311 21.2975 22.1019 21.4342 22.0453C21.5709 21.9886 21.6952 21.9056 21.7998 21.801C21.9044 21.6963 21.9875 21.5721 22.0441 21.4354C22.1007 21.2986 22.1299 21.1521 22.1299 21.0041C22.1299 20.8561 22.1007 20.7096 22.0441 20.5728C21.9875 20.4361 21.9044 20.3119 21.7998 20.2072L21.7961 20.2044ZM4.12512 10.5004C4.12512 9.2395 4.499 8.00696 5.1995 6.9586C5.89999 5.91024 6.89563 5.09314 8.06051 4.61063C9.22539 4.12812 10.5072 4.00187 11.7438 4.24785C12.9804 4.49383 14.1164 5.10099 15.0079 5.99255C15.8995 6.88411 16.5066 8.02003 16.7526 9.25666C16.9986 10.4933 16.8724 11.7751 16.3898 12.94C15.9073 14.1048 15.0902 15.1005 14.0419 15.801C12.9935 16.5015 11.761 16.8754 10.5001 16.8754C8.80989 16.8736 7.1894 16.2014 5.99423 15.0062C4.79906 13.8111 4.12685 12.1906 4.12512 10.5004Z" fill="black"/>
</svg>
