<svg width="28" height="29" viewBox="0 0 28 29" fill="none" xmlns="http://www.w3.org/2000/svg">
<circle cx="14" cy="14.958" r="14" fill="white"/>
<circle cx="14" cy="14.958" r="13.5" stroke="black" stroke-opacity="0.2"/>
<path fill-rule="evenodd" clip-rule="evenodd" d="M14.6068 8.18457C11.0159 8.18457 8.12695 11.0735 8.12695 14.6645C8.12695 17.5264 9.98992 19.9564 12.5549 20.8204C12.8789 20.8744 12.9869 20.6854 12.9869 20.4964C12.9869 20.3344 12.9869 19.9294 12.9869 19.3894C11.1779 19.7944 10.7999 18.5254 10.7999 18.5254C10.5029 17.7694 10.0709 17.5804 10.0709 17.5804C9.47693 17.1754 10.1249 17.1754 10.1249 17.1754C10.7729 17.2294 11.1239 17.8504 11.1239 17.8504C11.6909 18.8494 12.6359 18.5524 13.0139 18.3904C13.0679 17.9584 13.2299 17.6884 13.4189 17.5264C11.9879 17.3644 10.4759 16.7974 10.4759 14.3135C10.4759 13.6115 10.7189 13.0175 11.1509 12.5855C11.0969 12.4235 10.8539 11.7755 11.2049 10.8575C11.2049 10.8575 11.7449 10.6955 12.9869 11.5325C13.4999 11.3975 14.0669 11.3165 14.6068 11.3165C15.1468 11.3165 15.7138 11.3975 16.2268 11.5325C17.4688 10.6955 18.0088 10.8575 18.0088 10.8575C18.3598 11.7485 18.1438 12.3965 18.0628 12.5855C18.4678 13.0445 18.7378 13.6115 18.7378 14.3135C18.7378 16.7974 17.2258 17.3374 15.7678 17.4994C16.0108 17.6884 16.1998 18.0934 16.1998 18.6874C16.1998 19.5514 16.1998 20.2534 16.1998 20.4694C16.1998 20.6314 16.3078 20.8474 16.6588 20.7934C19.2238 19.9564 21.0867 17.5264 21.0867 14.6645C21.0867 11.0735 18.1978 8.18457 14.6068 8.18457Z" fill="black"/>
</svg>
