<svg width="28" height="29" viewBox="0 0 28 29" fill="none" xmlns="http://www.w3.org/2000/svg">
<circle cx="14" cy="14.958" r="14" fill="white"/>
<circle cx="14" cy="14.958" r="13.5" stroke="black" stroke-opacity="0.2"/>
<path d="M14.0008 9.40522C15.8095 9.40522 16.0237 9.41199 16.7382 9.44457C17.1678 9.44983 17.5933 9.52871 17.9962 9.6778C18.2884 9.79049 18.5538 9.96312 18.7753 10.1846C18.9967 10.406 19.1694 10.6714 19.282 10.9636C19.4311 11.3665 19.51 11.7921 19.5153 12.2217C19.5475 12.9362 19.5546 13.1504 19.5546 14.9591C19.5546 16.7678 19.5479 16.982 19.5153 17.6965C19.51 18.1261 19.4311 18.5516 19.282 18.9546C19.1694 19.2468 18.9967 19.5121 18.7753 19.7336C18.5538 19.9551 18.2884 20.1277 17.9962 20.2404C17.5933 20.3895 17.1678 20.4683 16.7382 20.4736C16.024 20.5059 15.8098 20.513 14.0008 20.513C12.1917 20.513 11.9775 20.5062 11.2633 20.4736C10.8337 20.4683 10.4082 20.3895 10.0053 20.2404C9.71307 20.1277 9.44769 19.9551 9.22624 19.7336C9.00479 19.5121 8.83216 19.2468 8.71947 18.9546C8.57038 18.5516 8.4915 18.1261 8.48624 17.6965C8.45398 16.982 8.44689 16.7678 8.44689 14.9591C8.44689 13.1504 8.45366 12.9362 8.48624 12.2217C8.4915 11.7921 8.57038 11.3665 8.71947 10.9636C8.83216 10.6714 9.00479 10.406 9.22624 10.1846C9.44769 9.96312 9.71307 9.79049 10.0053 9.6778C10.4082 9.52871 10.8337 9.44983 11.2633 9.44457C11.9779 9.41231 12.192 9.40522 14.0008 9.40522ZM14.0008 8.18457C12.162 8.18457 11.9304 8.19231 11.2079 8.22522C10.6456 8.2364 10.0893 8.34285 9.56269 8.54005C9.11092 8.71027 8.70172 8.97701 8.36366 9.32167C8.01869 9.65985 7.75172 10.0693 7.5814 10.5213C7.3842 11.048 7.27775 11.6043 7.26656 12.1665C7.2343 12.8884 7.22656 13.1201 7.22656 14.9588C7.22656 16.7975 7.2343 17.0291 7.26721 17.7517C7.27839 18.3139 7.38485 18.8702 7.58205 19.3968C7.75218 19.8488 8.01892 20.2583 8.36366 20.5965C8.70191 20.9412 9.11133 21.208 9.56334 21.3781C10.09 21.5753 10.6463 21.6818 11.2085 21.693C11.9311 21.7252 12.1617 21.7336 14.0014 21.7336C15.8411 21.7336 16.0717 21.7259 16.7943 21.693C17.3565 21.6818 17.9128 21.5753 18.4395 21.3781C18.8893 21.2037 19.2978 20.9374 19.6389 20.5961C19.98 20.2549 20.246 19.8462 20.4201 19.3962C20.6173 18.8695 20.7238 18.3133 20.735 17.751C20.7672 17.0291 20.775 16.7975 20.775 14.9588C20.775 13.1201 20.7672 12.8884 20.7343 12.1659C20.7231 11.6036 20.6167 11.0473 20.4195 10.5207C20.2493 10.0687 19.9826 9.65927 19.6379 9.32102C19.2996 8.97629 18.8902 8.70954 18.4382 8.53941C17.9115 8.34221 17.3553 8.23575 16.793 8.22457C16.0711 8.19231 15.8395 8.18457 14.0008 8.18457Z" fill="black"/>
<path d="M14.0021 11.4814C13.3141 11.4814 12.6416 11.6855 12.0695 12.0677C11.4974 12.45 11.0515 12.9933 10.7882 13.6289C10.5249 14.2646 10.4561 14.964 10.5903 15.6388C10.7245 16.3136 11.0558 16.9335 11.5423 17.42C12.0288 17.9065 12.6487 18.2378 13.3235 18.372C13.9983 18.5062 14.6977 18.4374 15.3334 18.1741C15.969 17.9108 16.5123 17.4649 16.8946 16.8928C17.2768 16.3208 17.4809 15.6482 17.4809 14.9602C17.4809 14.0375 17.1144 13.1527 16.462 12.5003C15.8096 11.848 14.9248 11.4814 14.0021 11.4814ZM14.0021 17.2182C13.5555 17.2182 13.119 17.0858 12.7476 16.8377C12.3763 16.5895 12.0869 16.2369 11.916 15.8243C11.7451 15.4117 11.7003 14.9576 11.7875 14.5196C11.8746 14.0816 12.0897 13.6793 12.4055 13.3635C12.7213 13.0477 13.1236 12.8326 13.5616 12.7455C13.9996 12.6584 14.4537 12.7031 14.8663 12.874C15.2789 13.0449 15.6315 13.3343 15.8797 13.7056C16.1278 14.077 16.2602 14.5136 16.2602 14.9602C16.2602 15.559 16.0223 16.1334 15.5988 16.5568C15.1754 16.9803 14.601 17.2182 14.0021 17.2182Z" fill="black"/>
<path d="M17.6176 12.1561C18.0665 12.1561 18.4305 11.7921 18.4305 11.3432C18.4305 10.8942 18.0665 10.5303 17.6176 10.5303C17.1686 10.5303 16.8047 10.8942 16.8047 11.3432C16.8047 11.7921 17.1686 12.1561 17.6176 12.1561Z" fill="black"/>
</svg>
