<svg width="28" height="29" viewBox="0 0 28 29" fill="none" xmlns="http://www.w3.org/2000/svg">
<circle cx="14" cy="14.958" r="14" fill="white"/>
<circle cx="14" cy="14.958" r="13.5" stroke="black" stroke-opacity="0.2"/>
<path d="M20.2071 11.9411C19.7881 12.1273 19.3458 12.2437 18.8802 12.3136C19.3458 12.0342 19.7183 11.5919 19.8812 11.0565C19.4389 11.3126 18.9501 11.4988 18.4146 11.6152C17.9956 11.1729 17.3904 10.8936 16.7386 10.8936C15.4815 10.8936 14.4572 11.9178 14.4572 13.1749C14.4572 13.3611 14.4805 13.5241 14.5271 13.687C12.6415 13.5939 10.9421 12.686 9.80141 11.2893C9.61518 11.6385 9.49878 12.0109 9.49878 12.43C9.49878 13.2215 9.89453 13.9198 10.5231 14.3388C10.1506 14.3156 9.80141 14.2225 9.4755 14.0595V14.0828C9.4755 15.2002 10.267 16.1313 11.3145 16.3408C11.1283 16.3874 10.9188 16.4107 10.7093 16.4107C10.5696 16.4107 10.4067 16.3874 10.267 16.3641C10.5696 17.272 11.4077 17.9471 12.4087 17.9471C11.6172 18.5524 10.6395 18.9248 9.56862 18.9248C9.38239 18.9248 9.19616 18.9248 9.0332 18.9015C10.0575 19.5533 11.2447 19.9258 12.5483 19.9258C16.7618 19.9258 19.0665 16.434 19.0665 13.4077C19.0665 13.3146 19.0665 13.1982 19.0665 13.1051C19.5088 12.8024 19.9045 12.4067 20.2071 11.9411Z" fill="black"/>
</svg>
